
<global>
ampeg_release=1.5
</global>

<group>
group_label=RR1
seq_length=8
seq_position=1

<region>
hivel=42
key=G4
lovel=0
sample=Trombone_staccatissimo_PP_G3_RR1.opus
</region>

<region>
hivel=42
key=G3
lovel=0
offset=6399
sample=Trombone_staccatissimo_PP_G2_RR1.opus
</region>

<region>
hivel=42
key=G2
lovel=0
offset=61
sample=Trombone_staccatissimo_PP_G1_RR1.opus
</region>

<region>
hivel=42
key=G#4
lovel=0
offset=5990
sample=Trombone_staccatissimo_PP_G#3_RR1.opus
</region>

<region>
hivel=42
key=G#3
lovel=0
offset=3426
sample=Trombone_staccatissimo_PP_G#2_RR1.opus
</region>

<region>
hivel=42
key=G#2
lovel=0
offset=6423
sample=Trombone_staccatissimo_PP_G#1_RR1.opus
</region>

<region>
hivel=42
key=F4
lovel=0
offset=7210
sample=Trombone_staccatissimo_PP_F3_RR1.opus
</region>

<region>
hivel=42
key=F3
lovel=0
offset=6092
sample=Trombone_staccatissimo_PP_F2_RR1.opus
</region>

<region>
hivel=42
key=F2
lovel=0
offset=8096
sample=Trombone_staccatissimo_PP_F1_RR1.opus
</region>

<region>
hivel=42
key=F#4
lovel=0
offset=5885
sample=Trombone_staccatissimo_PP_F#3_RR1.opus
</region>

<region>
hivel=42
key=F#3
lovel=0
offset=9226
sample=Trombone_staccatissimo_PP_F#2_RR1.opus
</region>

<region>
hivel=42
key=F#2
lovel=0
offset=5473
sample=Trombone_staccatissimo_PP_F#1_RR1.opus
</region>

<region>
hivel=42
key=E4
lovel=0
offset=8253
sample=Trombone_staccatissimo_PP_E3_RR1.opus
</region>

<region>
hivel=42
key=E3
lovel=0
offset=7736
sample=Trombone_staccatissimo_PP_E2_RR1.opus
</region>

<region>
hikey=E2
hivel=42
lokey=C1
lovel=0
offset=7120
pitch_keycenter=E2
sample=Trombone_staccatissimo_PP_E1_RR1.opus
</region>

<region>
hivel=42
key=D4
lovel=0
offset=6608
sample=Trombone_staccatissimo_PP_D3_RR1.opus
</region>

<region>
hivel=42
key=D3
lovel=0
offset=3922
sample=Trombone_staccatissimo_PP_D2_RR1.opus
</region>

<region>
hivel=42
key=D#4
lovel=0
sample=Trombone_staccatissimo_PP_D#3_RR1.opus
</region>

<region>
hivel=42
key=D#3
lovel=0
offset=6262
sample=Trombone_staccatissimo_PP_D#2_RR1.opus
</region>

<region>
hikey=D#5
hivel=42
lokey=C5
lovel=0
offset=8762
pitch_keycenter=C5
sample=Trombone_staccatissimo_PP_C4_RR1.opus
</region>

<region>
hikey=C4
hivel=42
lokey=C4
lovel=0
offset=5101
sample=Trombone_staccatissimo_PP_C3_RR1.opus
</region>

<region>
hivel=42
key=C3
lovel=0
offset=4379
sample=Trombone_staccatissimo_PP_C2_RR1.opus
</region>

<region>
hivel=42
key=C#4
lovel=0
sample=Trombone_staccatissimo_PP_C#3_RR1.opus
</region>

<region>
hivel=42
key=C#3
lovel=0
offset=5942
sample=Trombone_staccatissimo_PP_C#2_RR1.opus
</region>

<region>
hivel=42
key=B4
lovel=0
offset=7360
sample=Trombone_staccatissimo_PP_B3_RR1.opus
</region>

<region>
hivel=42
key=B3
lovel=0
offset=5847
sample=Trombone_staccatissimo_PP_B2_RR1.opus
</region>

<region>
hivel=42
key=B2
lovel=0
offset=5931
sample=Trombone_staccatissimo_PP_B1_RR1.opus
</region>

<region>
hivel=42
key=A4
lovel=0
offset=7016
sample=Trombone_staccatissimo_PP_A3_RR1.opus
</region>

<region>
hivel=42
key=A3
lovel=0
offset=4377
sample=Trombone_staccatissimo_PP_A2_RR1.opus
</region>

<region>
hivel=42
key=A2
lovel=0
offset=4108
sample=Trombone_staccatissimo_PP_A1_RR1.opus
</region>

<region>
hivel=42
key=A#4
lovel=0
offset=7860
sample=Trombone_staccatissimo_PP_A#3_RR1.opus
</region>

<region>
hivel=42
key=A#3
lovel=0
offset=5205
sample=Trombone_staccatissimo_PP_A#2_RR1.opus
</region>

<region>
hivel=42
key=A#2
lovel=0
offset=6236
sample=Trombone_staccatissimo_PP_A#1_RR1.opus
</region>

<region>
hivel=86
key=G4
lovel=43
sample=Trombone_staccatissimo_MF_G3_RR1.opus
</region>

<region>
hivel=86
key=G3
lovel=43
offset=5151
sample=Trombone_staccatissimo_MF_G2_RR1.opus
</region>

<region>
hivel=86
key=G2
lovel=43
offset=9218
sample=Trombone_staccatissimo_MF_G1_RR1.opus
</region>

<region>
hivel=86
key=G#4
lovel=43
offset=7013
sample=Trombone_staccatissimo_MF_G#3_RR1.opus
</region>

<region>
hivel=86
key=G#3
lovel=43
offset=445
sample=Trombone_staccatissimo_MF_G#2_RR1.opus
</region>

<region>
hivel=86
key=G#2
lovel=43
offset=6438
sample=Trombone_staccatissimo_MF_G#1_RR1.opus
</region>

<region>
hivel=86
key=F4
lovel=43
offset=7682
sample=Trombone_staccatissimo_MF_F3_RR1.opus
</region>

<region>
hivel=86
key=F3
lovel=43
offset=4667
sample=Trombone_staccatissimo_MF_F2_RR1.opus
</region>

<region>
hivel=86
key=F2
lovel=43
offset=9179
sample=Trombone_staccatissimo_MF_F1_RR1.opus
</region>

<region>
hivel=86
key=F#4
lovel=43
offset=6128
sample=Trombone_staccatissimo_MF_F#3_RR1.opus
</region>

<region>
hivel=86
key=F#3
lovel=43
offset=6268
sample=Trombone_staccatissimo_MF_F#2_RR1.opus
</region>

<region>
hivel=86
key=F#2
lovel=43
offset=4214
sample=Trombone_staccatissimo_MF_F#1_RR1.opus
</region>

<region>
hivel=86
key=E4
lovel=43
offset=5266
sample=Trombone_staccatissimo_MF_E3_RR1.opus
</region>

<region>
hivel=86
key=E3
lovel=43
offset=3993
sample=Trombone_staccatissimo_MF_E2_RR1.opus
</region>

<region>
hikey=E2
hivel=86
lokey=C1
lovel=43
offset=8603
pitch_keycenter=E2
sample=Trombone_staccatissimo_MF_E1_RR1.opus
</region>

<region>
hivel=86
key=D4
lovel=43
offset=6517
sample=Trombone_staccatissimo_MF_D3_RR1.opus
</region>

<region>
hivel=86
key=D3
lovel=43
offset=6156
sample=Trombone_staccatissimo_MF_D2_RR1.opus
</region>

<region>
hivel=86
key=D#4
lovel=43
offset=5465
sample=Trombone_staccatissimo_MF_D#3_RR1.opus
</region>

<region>
hivel=86
key=D#3
lovel=43
offset=5481
sample=Trombone_staccatissimo_MF_D#2_RR1.opus
</region>

<region>
hikey=D#5
hivel=86
lokey=C5
lovel=43
pitch_keycenter=C5
sample=Trombone_staccatissimo_MF_C4_RR1.opus
</region>

<region>
hikey=C4
hivel=86
lokey=C4
lovel=43
offset=5985
sample=Trombone_staccatissimo_MF_C3_RR1.opus
</region>

<region>
hivel=86
key=C3
lovel=43
offset=3995
sample=Trombone_staccatissimo_MF_C2_RR1.opus
</region>

<region>
hivel=86
key=C#4
lovel=43
offset=6230
sample=Trombone_staccatissimo_MF_C#3_RR1.opus
</region>

<region>
hivel=86
key=C#3
lovel=43
offset=5122
sample=Trombone_staccatissimo_MF_C#2_RR1.opus
</region>

<region>
hivel=86
key=B4
lovel=43
offset=4948
sample=Trombone_staccatissimo_MF_B3_RR1.opus
</region>

<region>
hivel=86
key=B3
lovel=43
offset=4706
sample=Trombone_staccatissimo_MF_B2_RR1.opus
</region>

<region>
hivel=86
key=B2
lovel=43
offset=5045
sample=Trombone_staccatissimo_MF_B1_RR1.opus
</region>

<region>
hivel=86
key=A4
lovel=43
offset=8327
sample=Trombone_staccatissimo_MF_A3_RR1.opus
</region>

<region>
hivel=86
key=A3
lovel=43
offset=6093
sample=Trombone_staccatissimo_MF_A2_RR1.opus
</region>

<region>
hivel=86
key=A2
lovel=43
offset=4672
sample=Trombone_staccatissimo_MF_A1_RR1.opus
</region>

<region>
hivel=86
key=A#4
lovel=43
offset=5735
sample=Trombone_staccatissimo_MF_A#3_RR1.opus
</region>

<region>
hivel=86
key=A#3
lovel=43
offset=5454
sample=Trombone_staccatissimo_MF_A#2_RR1.opus
</region>

<region>
hivel=86
key=A#2
lovel=43
offset=3475
sample=Trombone_staccatissimo_MF_A#1_RR1.opus
</region>

<region>
hivel=127
key=G4
lovel=87
offset=242
sample=Trombone_staccatissimo_FF_G3_RR1.opus
</region>

<region>
hivel=127
key=G3
lovel=87
offset=5369
sample=Trombone_staccatissimo_FF_G2_RR1.opus
</region>

<region>
hivel=127
key=G2
lovel=87
offset=6316
sample=Trombone_staccatissimo_FF_G1_RR1.opus
</region>

<region>
hivel=127
key=G#4
lovel=87
offset=6729
sample=Trombone_staccatissimo_FF_G#3_RR1.opus
</region>

<region>
hivel=127
key=G#3
lovel=87
offset=6428
sample=Trombone_staccatissimo_FF_G#2_RR1.opus
</region>

<region>
hivel=127
key=G#2
lovel=87
offset=5178
sample=Trombone_staccatissimo_FF_G#1_RR1.opus
</region>

<region>
hivel=127
key=F4
lovel=87
offset=6815
sample=Trombone_staccatissimo_FF_F3_RR1.opus
</region>

<region>
hivel=127
key=F3
lovel=87
offset=6300
sample=Trombone_staccatissimo_FF_F2_RR1.opus
</region>

<region>
hivel=127
key=F2
lovel=87
offset=4809
sample=Trombone_staccatissimo_FF_F1_RR1.opus
</region>

<region>
hivel=127
key=F#4
lovel=87
offset=6470
sample=Trombone_staccatissimo_FF_F#3_RR1.opus
</region>

<region>
hivel=127
key=F#3
lovel=87
offset=6311
sample=Trombone_staccatissimo_FF_F#2_RR1.opus
</region>

<region>
hivel=127
key=F#2
lovel=87
offset=4816
sample=Trombone_staccatissimo_FF_F#1_RR1.opus
</region>

<region>
hivel=127
key=E4
lovel=87
offset=6458
sample=Trombone_staccatissimo_FF_E3_RR1.opus
</region>

<region>
hivel=127
key=E3
lovel=87
offset=345
sample=Trombone_staccatissimo_FF_E2_RR1.opus
</region>

<region>
hikey=E2
hivel=127
lokey=C1
lovel=87
offset=5622
pitch_keycenter=E2
sample=Trombone_staccatissimo_FF_E1_RR1.opus
</region>

<region>
hivel=127
key=D4
lovel=87
offset=6036
sample=Trombone_staccatissimo_FF_D3_RR1.opus
</region>

<region>
hivel=127
key=D3
lovel=87
offset=518
sample=Trombone_staccatissimo_FF_D2_RR1.opus
</region>

<region>
hivel=127
key=D#4
lovel=87
offset=5585
sample=Trombone_staccatissimo_FF_D#3_RR1.opus
</region>

<region>
hivel=127
key=D#3
lovel=87
offset=149
sample=Trombone_staccatissimo_FF_D#2_RR1.opus
</region>

<region>
hikey=D#5
hivel=127
lokey=C5
lovel=87
offset=340
pitch_keycenter=C5
sample=Trombone_staccatissimo_FF_C4_RR1.opus
</region>

<region>
hikey=C4
hivel=127
lokey=C4
lovel=87
offset=6967
sample=Trombone_staccatissimo_FF_C3_RR1.opus
</region>

<region>
hivel=127
key=C3
lovel=87
offset=4826
sample=Trombone_staccatissimo_FF_C2_RR1.opus
</region>

<region>
hivel=127
key=C#4
lovel=87
offset=13
sample=Trombone_staccatissimo_FF_C#3_RR1.opus
</region>

<region>
hivel=127
key=C#3
lovel=87
offset=874
sample=Trombone_staccatissimo_FF_C#2_RR1.opus
</region>

<region>
hivel=127
key=B4
lovel=87
offset=243
sample=Trombone_staccatissimo_FF_B3_RR1.opus
</region>

<region>
hivel=127
key=B3
lovel=87
offset=5120
sample=Trombone_staccatissimo_FF_B2_RR1.opus
</region>

<region>
hivel=127
key=B2
lovel=87
offset=5314
sample=Trombone_staccatissimo_FF_B1_RR1.opus
</region>

<region>
hivel=127
key=A4
lovel=87
offset=440
sample=Trombone_staccatissimo_FF_A3_RR1.opus
</region>

<region>
hivel=127
key=A3
lovel=87
offset=195
sample=Trombone_staccatissimo_FF_A2_RR1.opus
</region>

<region>
hivel=127
key=A2
lovel=87
offset=1181
sample=Trombone_staccatissimo_FF_A1_RR1.opus
</region>

<region>
hivel=127
key=A#4
lovel=87
offset=328
sample=Trombone_staccatissimo_FF_A#3_RR1.opus
</region>

<region>
hivel=127
key=A#3
lovel=87
offset=4161
sample=Trombone_staccatissimo_FF_A#2_RR1.opus
</region>

<region>
hivel=127
key=A#2
lovel=87
offset=1121
sample=Trombone_staccatissimo_FF_A#1_RR1.opus
</region>
</group>

<group>
group_label=RR2
seq_length=8
seq_position=2

<region>
hivel=42
key=G4
lovel=0
offset=308
sample=Trombone_staccatissimo_PP_G3_RR2.opus
</region>

<region>
hivel=42
key=G3
lovel=0
offset=1826
sample=Trombone_staccatissimo_PP_G2_RR2.opus
</region>

<region>
hivel=42
key=G2
lovel=0
offset=3472
sample=Trombone_staccatissimo_PP_G1_RR2.opus
</region>

<region>
hivel=42
key=G#4
lovel=0
offset=375
sample=Trombone_staccatissimo_PP_G#3_RR2.opus
</region>

<region>
hivel=42
key=G#3
lovel=0
offset=2147
sample=Trombone_staccatissimo_PP_G#2_RR2.opus
</region>

<region>
hivel=42
key=G#2
lovel=0
offset=7525
sample=Trombone_staccatissimo_PP_G#1_RR2.opus
</region>

<region>
hivel=42
key=F4
lovel=0
offset=5704
sample=Trombone_staccatissimo_PP_F3_RR2.opus
</region>

<region>
hivel=42
key=F3
lovel=0
offset=3589
sample=Trombone_staccatissimo_PP_F2_RR2.opus
</region>

<region>
hivel=42
key=F2
lovel=0
offset=6665
sample=Trombone_staccatissimo_PP_F1_RR2.opus
</region>

<region>
hivel=42
key=F#4
lovel=0
offset=401
sample=Trombone_staccatissimo_PP_F#3_RR2.opus
</region>

<region>
hivel=42
key=F#3
lovel=0
offset=1029
sample=Trombone_staccatissimo_PP_F#2_RR2.opus
</region>

<region>
hivel=42
key=F#2
lovel=0
offset=6923
sample=Trombone_staccatissimo_PP_F#1_RR2.opus
</region>

<region>
hivel=42
key=E4
lovel=0
sample=Trombone_staccatissimo_PP_E3_RR2.opus
</region>

<region>
hivel=42
key=E3
lovel=0
offset=6026
sample=Trombone_staccatissimo_PP_E2_RR2.opus
</region>

<region>
hikey=E2
hivel=42
lokey=C1
lovel=0
offset=5450
pitch_keycenter=E2
sample=Trombone_staccatissimo_PP_E1_RR2.opus
</region>

<region>
hivel=42
key=D4
lovel=0
offset=1718
sample=Trombone_staccatissimo_PP_D3_RR2.opus
</region>

<region>
hivel=42
key=D3
lovel=0
offset=5021
sample=Trombone_staccatissimo_PP_D2_RR2.opus
</region>

<region>
hivel=42
key=D#4
lovel=0
sample=Trombone_staccatissimo_PP_D#3_RR2.opus
</region>

<region>
hivel=42
key=D#3
lovel=0
offset=7212
sample=Trombone_staccatissimo_PP_D#2_RR2.opus
</region>

<region>
hikey=D#5
hivel=42
lokey=C5
lovel=0
offset=442
pitch_keycenter=C5
sample=Trombone_staccatissimo_PP_C4_RR2.opus
</region>

<region>
hikey=C4
hivel=42
lokey=C4
lovel=0
offset=1327
sample=Trombone_staccatissimo_PP_C3_RR2.opus
</region>

<region>
hivel=42
key=C3
lovel=0
offset=5711
sample=Trombone_staccatissimo_PP_C2_RR2.opus
</region>

<region>
hivel=42
key=C#4
lovel=0
sample=Trombone_staccatissimo_PP_C#3_RR2.opus
</region>

<region>
hivel=42
key=C#3
lovel=0
offset=3302
sample=Trombone_staccatissimo_PP_C#2_RR2.opus
</region>

<region>
hivel=42
key=B4
lovel=0
offset=215
sample=Trombone_staccatissimo_PP_B3_RR2.opus
</region>

<region>
hivel=42
key=B3
lovel=0
offset=2287
sample=Trombone_staccatissimo_PP_B2_RR2.opus
</region>

<region>
hivel=42
key=B2
lovel=0
offset=5655
sample=Trombone_staccatissimo_PP_B1_RR2.opus
</region>

<region>
hivel=42
key=A4
lovel=0
offset=7379
sample=Trombone_staccatissimo_PP_A3_RR2.opus
</region>

<region>
hivel=42
key=A3
lovel=0
offset=240
sample=Trombone_staccatissimo_PP_A2_RR2.opus
</region>

<region>
hivel=42
key=A2
lovel=0
offset=4815
sample=Trombone_staccatissimo_PP_A1_RR2.opus
</region>

<region>
hivel=42
key=A#4
lovel=0
sample=Trombone_staccatissimo_PP_A#3_RR2.opus
</region>

<region>
hivel=42
key=A#3
lovel=0
offset=371
sample=Trombone_staccatissimo_PP_A#2_RR2.opus
</region>

<region>
hivel=42
key=A#2
lovel=0
offset=5107
sample=Trombone_staccatissimo_PP_A#1_RR2.opus
</region>

<region>
hivel=86
key=G4
lovel=43
sample=Trombone_staccatissimo_MF_G3_RR2.opus
</region>

<region>
hivel=86
key=G3
lovel=43
offset=492
sample=Trombone_staccatissimo_MF_G2_RR2.opus
</region>

<region>
hivel=86
key=G2
lovel=43
offset=6880
sample=Trombone_staccatissimo_MF_G1_RR2.opus
</region>

<region>
hivel=86
key=G#4
lovel=43
offset=2141
sample=Trombone_staccatissimo_MF_G#3_RR2.opus
</region>

<region>
hivel=86
key=G#3
lovel=43
offset=477
sample=Trombone_staccatissimo_MF_G#2_RR2.opus
</region>

<region>
hivel=86
key=G#2
lovel=43
offset=783
sample=Trombone_staccatissimo_MF_G#1_RR2.opus
</region>

<region>
hivel=86
key=F4
lovel=43
offset=303
sample=Trombone_staccatissimo_MF_F3_RR2.opus
</region>

<region>
hivel=86
key=F3
lovel=43
offset=359
sample=Trombone_staccatissimo_MF_F2_RR2.opus
</region>

<region>
hivel=86
key=F2
lovel=43
offset=9358
sample=Trombone_staccatissimo_MF_F1_RR2.opus
</region>

<region>
hivel=86
key=F#4
lovel=43
offset=449
sample=Trombone_staccatissimo_MF_F#3_RR2.opus
</region>

<region>
hivel=86
key=F#3
lovel=43
offset=564
sample=Trombone_staccatissimo_MF_F#2_RR2.opus
</region>

<region>
hivel=86
key=F#2
lovel=43
offset=1035
sample=Trombone_staccatissimo_MF_F#1_RR2.opus
</region>

<region>
hivel=86
key=E4
lovel=43
offset=472
sample=Trombone_staccatissimo_MF_E3_RR2.opus
</region>

<region>
hivel=86
key=E3
lovel=43
offset=387
sample=Trombone_staccatissimo_MF_E2_RR2.opus
</region>

<region>
hikey=E2
hivel=86
lokey=C1
lovel=43
offset=1235
pitch_keycenter=E2
sample=Trombone_staccatissimo_MF_E1_RR2.opus
</region>

<region>
hivel=86
key=D4
lovel=43
offset=159
sample=Trombone_staccatissimo_MF_D3_RR2.opus
</region>

<region>
hivel=86
key=D3
lovel=43
offset=467
sample=Trombone_staccatissimo_MF_D2_RR2.opus
</region>

<region>
hivel=86
key=D#4
lovel=43
offset=416
sample=Trombone_staccatissimo_MF_D#3_RR2.opus
</region>

<region>
hivel=86
key=D#3
lovel=43
offset=59
sample=Trombone_staccatissimo_MF_D#2_RR2.opus
</region>

<region>
hikey=D#5
hivel=86
lokey=C5
lovel=43
pitch_keycenter=C5
sample=Trombone_staccatissimo_MF_C4_RR2.opus
</region>

<region>
hikey=C4
hivel=86
lokey=C4
lovel=43
offset=418
sample=Trombone_staccatissimo_MF_C3_RR2.opus
</region>

<region>
hivel=86
key=C3
lovel=43
offset=555
sample=Trombone_staccatissimo_MF_C2_RR2.opus
</region>

<region>
hivel=86
key=C#4
lovel=43
offset=48
sample=Trombone_staccatissimo_MF_C#3_RR2.opus
</region>

<region>
hivel=86
key=C#3
lovel=43
offset=5077
sample=Trombone_staccatissimo_MF_C#2_RR2.opus
</region>

<region>
hivel=86
key=B4
lovel=43
offset=186
sample=Trombone_staccatissimo_MF_B3_RR2.opus
</region>

<region>
hivel=86
key=B3
lovel=43
offset=472
sample=Trombone_staccatissimo_MF_B2_RR2.opus
</region>

<region>
hivel=86
key=B2
lovel=43
offset=1107
sample=Trombone_staccatissimo_MF_B1_RR2.opus
</region>

<region>
hivel=86
key=A4
lovel=43
sample=Trombone_staccatissimo_MF_A3_RR2.opus
</region>

<region>
hivel=86
key=A3
lovel=43
offset=338
sample=Trombone_staccatissimo_MF_A2_RR2.opus
</region>

<region>
hivel=86
key=A2
lovel=43
offset=1252
sample=Trombone_staccatissimo_MF_A1_RR2.opus
</region>

<region>
hivel=86
key=A#4
lovel=43
offset=41
sample=Trombone_staccatissimo_MF_A#3_RR2.opus
</region>

<region>
hivel=86
key=A#3
lovel=43
offset=530
sample=Trombone_staccatissimo_MF_A#2_RR2.opus
</region>

<region>
hivel=86
key=A#2
lovel=43
offset=689
sample=Trombone_staccatissimo_MF_A#1_RR2.opus
</region>

<region>
hivel=127
key=G4
lovel=87
offset=266
sample=Trombone_staccatissimo_FF_G3_RR2.opus
</region>

<region>
hivel=127
key=G3
lovel=87
offset=37
sample=Trombone_staccatissimo_FF_G2_RR2.opus
</region>

<region>
hivel=127
key=G2
lovel=87
offset=970
sample=Trombone_staccatissimo_FF_G1_RR2.opus
</region>

<region>
hivel=127
key=G#4
lovel=87
offset=221
sample=Trombone_staccatissimo_FF_G#3_RR2.opus
</region>

<region>
hivel=127
key=G#3
lovel=87
sample=Trombone_staccatissimo_FF_G#2_RR2.opus
</region>

<region>
hivel=127
key=G#2
lovel=87
offset=935
sample=Trombone_staccatissimo_FF_G#1_RR2.opus
</region>

<region>
hivel=127
key=F4
lovel=87
offset=330
sample=Trombone_staccatissimo_FF_F3_RR2.opus
</region>

<region>
hivel=127
key=F3
lovel=87
offset=617
sample=Trombone_staccatissimo_FF_F2_RR2.opus
</region>

<region>
hivel=127
key=F2
lovel=87
offset=741
sample=Trombone_staccatissimo_FF_F1_RR2.opus
</region>

<region>
hivel=127
key=F#4
lovel=87
offset=183
sample=Trombone_staccatissimo_FF_F#3_RR2.opus
</region>

<region>
hivel=127
key=F#3
lovel=87
sample=Trombone_staccatissimo_FF_F#2_RR2.opus
</region>

<region>
hivel=127
key=F#2
lovel=87
offset=69
sample=Trombone_staccatissimo_FF_F#1_RR2.opus
</region>

<region>
hivel=127
key=E4
lovel=87
offset=261
sample=Trombone_staccatissimo_FF_E3_RR2.opus
</region>

<region>
hivel=127
key=E3
lovel=87
offset=127
sample=Trombone_staccatissimo_FF_E2_RR2.opus
</region>

<region>
hikey=E2
hivel=127
lokey=C1
lovel=87
offset=803
pitch_keycenter=E2
sample=Trombone_staccatissimo_FF_E1_RR2.opus
</region>

<region>
hivel=127
key=D4
lovel=87
sample=Trombone_staccatissimo_FF_D3_RR2.opus
</region>

<region>
hivel=127
key=D3
lovel=87
offset=216
sample=Trombone_staccatissimo_FF_D2_RR2.opus
</region>

<region>
hivel=127
key=D#4
lovel=87
offset=293
sample=Trombone_staccatissimo_FF_D#3_RR2.opus
</region>

<region>
hivel=127
key=D#3
lovel=87
offset=386
sample=Trombone_staccatissimo_FF_D#2_RR2.opus
</region>

<region>
hikey=D#5
hivel=127
lokey=C5
lovel=87
offset=350
pitch_keycenter=C5
sample=Trombone_staccatissimo_FF_C4_RR2.opus
</region>

<region>
hikey=C4
hivel=127
lokey=C4
lovel=87
offset=72
sample=Trombone_staccatissimo_FF_C3_RR2.opus
</region>

<region>
hivel=127
key=C3
lovel=87
offset=1024
sample=Trombone_staccatissimo_FF_C2_RR2.opus
</region>

<region>
hivel=127
key=C#4
lovel=87
offset=223
sample=Trombone_staccatissimo_FF_C#3_RR2.opus
</region>

<region>
hivel=127
key=C#3
lovel=87
offset=559
sample=Trombone_staccatissimo_FF_C#2_RR2.opus
</region>

<region>
hivel=127
key=B4
lovel=87
offset=267
sample=Trombone_staccatissimo_FF_B3_RR2.opus
</region>

<region>
hivel=127
key=B3
lovel=87
offset=116
sample=Trombone_staccatissimo_FF_B2_RR2.opus
</region>

<region>
hivel=127
key=B2
lovel=87
offset=676
sample=Trombone_staccatissimo_FF_B1_RR2.opus
</region>

<region>
hivel=127
key=A4
lovel=87
offset=267
sample=Trombone_staccatissimo_FF_A3_RR2.opus
</region>

<region>
hivel=127
key=A3
lovel=87
sample=Trombone_staccatissimo_FF_A2_RR2.opus
</region>

<region>
hivel=127
key=A2
lovel=87
offset=842
sample=Trombone_staccatissimo_FF_A1_RR2.opus
</region>

<region>
hivel=127
key=A#4
lovel=87
offset=272
sample=Trombone_staccatissimo_FF_A#3_RR2.opus
</region>

<region>
hivel=127
key=A#3
lovel=87
offset=163
sample=Trombone_staccatissimo_FF_A#2_RR2.opus
</region>

<region>
hivel=127
key=A#2
lovel=87
sample=Trombone_staccatissimo_FF_A#1_RR2.opus
</region>
</group>

<group>
group_label=RR3
seq_length=8
seq_position=3

<region>
hivel=42
key=G4
lovel=0
sample=Trombone_staccatissimo_PP_G3_RR3.opus
</region>

<region>
hivel=42
key=G3
lovel=0
offset=1147
sample=Trombone_staccatissimo_PP_G2_RR3.opus
</region>

<region>
hivel=42
key=G2
lovel=0
offset=3293
sample=Trombone_staccatissimo_PP_G1_RR3.opus
</region>

<region>
hivel=42
key=G#4
lovel=0
offset=70
sample=Trombone_staccatissimo_PP_G#3_RR3.opus
</region>

<region>
hivel=42
key=G#3
lovel=0
offset=481
sample=Trombone_staccatissimo_PP_G#2_RR3.opus
</region>

<region>
hivel=42
key=G#2
lovel=0
offset=2723
sample=Trombone_staccatissimo_PP_G#1_RR3.opus
</region>

<region>
hivel=42
key=F4
lovel=0
offset=32
sample=Trombone_staccatissimo_PP_F3_RR3.opus
</region>

<region>
hivel=42
key=F3
lovel=0
offset=1992
sample=Trombone_staccatissimo_PP_F2_RR3.opus
</region>

<region>
hivel=42
key=F2
lovel=0
offset=5886
sample=Trombone_staccatissimo_PP_F1_RR3.opus
</region>

<region>
hivel=42
key=F#4
lovel=0
offset=36
sample=Trombone_staccatissimo_PP_F#3_RR3.opus
</region>

<region>
hivel=42
key=F#3
lovel=0
offset=3504
sample=Trombone_staccatissimo_PP_F#2_RR3.opus
</region>

<region>
hivel=42
key=F#2
lovel=0
offset=4019
sample=Trombone_staccatissimo_PP_F#1_RR3.opus
</region>

<region>
hivel=42
key=E4
lovel=0
offset=7492
sample=Trombone_staccatissimo_PP_E3_RR3.opus
</region>

<region>
hivel=42
key=E3
lovel=0
offset=5780
sample=Trombone_staccatissimo_PP_E2_RR3.opus
</region>

<region>
hikey=E2
hivel=42
lokey=C1
lovel=0
offset=5163
pitch_keycenter=E2
sample=Trombone_staccatissimo_PP_E1_RR3.opus
</region>

<region>
hivel=42
key=D4
lovel=0
offset=2641
sample=Trombone_staccatissimo_PP_D3_RR3.opus
</region>

<region>
hivel=42
key=D3
lovel=0
offset=1682
sample=Trombone_staccatissimo_PP_D2_RR3.opus
</region>

<region>
hivel=42
key=D#4
lovel=0
offset=373
sample=Trombone_staccatissimo_PP_D#3_RR3.opus
</region>

<region>
hivel=42
key=D#3
lovel=0
offset=416
sample=Trombone_staccatissimo_PP_D#2_RR3.opus
</region>

<region>
hikey=D#5
hivel=42
lokey=C5
lovel=0
offset=299
pitch_keycenter=C5
sample=Trombone_staccatissimo_PP_C4_RR3.opus
</region>

<region>
hikey=C4
hivel=42
lokey=C4
lovel=0
offset=5628
sample=Trombone_staccatissimo_PP_C3_RR3.opus
</region>

<region>
hivel=42
key=C3
lovel=0
offset=6205
sample=Trombone_staccatissimo_PP_C2_RR3.opus
</region>

<region>
hivel=42
key=C#4
lovel=0
sample=Trombone_staccatissimo_PP_C#3_RR3.opus
</region>

<region>
hivel=42
key=C#3
lovel=0
offset=429
sample=Trombone_staccatissimo_PP_C#2_RR3.opus
</region>

<region>
hivel=42
key=B4
lovel=0
sample=Trombone_staccatissimo_PP_B3_RR3.opus
</region>

<region>
hivel=42
key=B3
lovel=0
offset=3606
sample=Trombone_staccatissimo_PP_B2_RR3.opus
</region>

<region>
hivel=42
key=B2
lovel=0
offset=3701
sample=Trombone_staccatissimo_PP_B1_RR3.opus
</region>

<region>
hivel=42
key=A4
lovel=0
offset=559
sample=Trombone_staccatissimo_PP_A3_RR3.opus
</region>

<region>
hivel=42
key=A3
lovel=0
offset=248
sample=Trombone_staccatissimo_PP_A2_RR3.opus
</region>

<region>
hivel=42
key=A2
lovel=0
offset=2970
sample=Trombone_staccatissimo_PP_A1_RR3.opus
</region>

<region>
hivel=42
key=A#4
lovel=0
sample=Trombone_staccatissimo_PP_A#3_RR3.opus
</region>

<region>
hivel=42
key=A#3
lovel=0
offset=325
sample=Trombone_staccatissimo_PP_A#2_RR3.opus
</region>

<region>
hivel=42
key=A#2
lovel=0
offset=6413
sample=Trombone_staccatissimo_PP_A#1_RR3.opus
</region>

<region>
hivel=86
key=G4
lovel=43
offset=99
sample=Trombone_staccatissimo_MF_G3_RR3.opus
</region>

<region>
hivel=86
key=G3
lovel=43
offset=468
sample=Trombone_staccatissimo_MF_G2_RR3.opus
</region>

<region>
hivel=86
key=G2
lovel=43
offset=953
sample=Trombone_staccatissimo_MF_G1_RR3.opus
</region>

<region>
hivel=86
key=G#4
lovel=43
offset=198
sample=Trombone_staccatissimo_MF_G#3_RR3.opus
</region>

<region>
hivel=86
key=G#3
lovel=43
offset=436
sample=Trombone_staccatissimo_MF_G#2_RR3.opus
</region>

<region>
hivel=86
key=G#2
lovel=43
offset=4698
sample=Trombone_staccatissimo_MF_G#1_RR3.opus
</region>

<region>
hivel=86
key=F4
lovel=43
offset=455
sample=Trombone_staccatissimo_MF_F3_RR3.opus
</region>

<region>
hivel=86
key=F3
lovel=43
offset=585
sample=Trombone_staccatissimo_MF_F2_RR3.opus
</region>

<region>
hivel=86
key=F2
lovel=43
offset=4300
sample=Trombone_staccatissimo_MF_F1_RR3.opus
</region>

<region>
hivel=86
key=F#4
lovel=43
offset=30
sample=Trombone_staccatissimo_MF_F#3_RR3.opus
</region>

<region>
hivel=86
key=F#3
lovel=43
offset=553
sample=Trombone_staccatissimo_MF_F#2_RR3.opus
</region>

<region>
hivel=86
key=F#2
lovel=43
offset=5625
sample=Trombone_staccatissimo_MF_F#1_RR3.opus
</region>

<region>
hivel=86
key=E4
lovel=43
offset=697
sample=Trombone_staccatissimo_MF_E3_RR3.opus
</region>

<region>
hivel=86
key=E3
lovel=43
offset=749
sample=Trombone_staccatissimo_MF_E2_RR3.opus
</region>

<region>
hikey=E2
hivel=86
lokey=C1
lovel=43
offset=1899
pitch_keycenter=E2
sample=Trombone_staccatissimo_MF_E1_RR3.opus
</region>

<region>
hivel=86
key=D4
lovel=43
offset=963
sample=Trombone_staccatissimo_MF_D3_RR3.opus
</region>

<region>
hivel=86
key=D3
lovel=43
offset=403
sample=Trombone_staccatissimo_MF_D2_RR3.opus
</region>

<region>
hivel=86
key=D#4
lovel=43
offset=323
sample=Trombone_staccatissimo_MF_D#3_RR3.opus
</region>

<region>
hivel=86
key=D#3
lovel=43
offset=436
sample=Trombone_staccatissimo_MF_D#2_RR3.opus
</region>

<region>
hikey=D#5
hivel=86
lokey=C5
lovel=43
pitch_keycenter=C5
sample=Trombone_staccatissimo_MF_C4_RR3.opus
</region>

<region>
hikey=C4
hivel=86
lokey=C4
lovel=43
offset=404
sample=Trombone_staccatissimo_MF_C3_RR3.opus
</region>

<region>
hivel=86
key=C3
lovel=43
offset=3623
sample=Trombone_staccatissimo_MF_C2_RR3.opus
</region>

<region>
hivel=86
key=C#4
lovel=43
offset=356
sample=Trombone_staccatissimo_MF_C#3_RR3.opus
</region>

<region>
hivel=86
key=C#3
lovel=43
offset=245
sample=Trombone_staccatissimo_MF_C#2_RR3.opus
</region>

<region>
hivel=86
key=B4
lovel=43
sample=Trombone_staccatissimo_MF_B3_RR3.opus
</region>

<region>
hivel=86
key=B3
lovel=43
offset=468
sample=Trombone_staccatissimo_MF_B2_RR3.opus
</region>

<region>
hivel=86
key=B2
lovel=43
offset=610
sample=Trombone_staccatissimo_MF_B1_RR3.opus
</region>

<region>
hivel=86
key=A4
lovel=43
sample=Trombone_staccatissimo_MF_A3_RR3.opus
</region>

<region>
hivel=86
key=A3
lovel=43
offset=332
sample=Trombone_staccatissimo_MF_A2_RR3.opus
</region>

<region>
hivel=86
key=A2
lovel=43
offset=770
sample=Trombone_staccatissimo_MF_A1_RR3.opus
</region>

<region>
hivel=86
key=A#4
lovel=43
offset=99
sample=Trombone_staccatissimo_MF_A#3_RR3.opus
</region>

<region>
hivel=86
key=A#3
lovel=43
offset=278
sample=Trombone_staccatissimo_MF_A#2_RR3.opus
</region>

<region>
hivel=86
key=A#2
lovel=43
offset=1057
sample=Trombone_staccatissimo_MF_A#1_RR3.opus
</region>

<region>
hivel=127
key=G4
lovel=87
offset=261
sample=Trombone_staccatissimo_FF_G3_RR3.opus
</region>

<region>
hivel=127
key=G3
lovel=87
offset=2
sample=Trombone_staccatissimo_FF_G2_RR3.opus
</region>

<region>
hivel=127
key=G2
lovel=87
offset=522
sample=Trombone_staccatissimo_FF_G1_RR3.opus
</region>

<region>
hivel=127
key=G#4
lovel=87
offset=210
sample=Trombone_staccatissimo_FF_G#3_RR3.opus
</region>

<region>
hivel=127
key=G#3
lovel=87
offset=1
sample=Trombone_staccatissimo_FF_G#2_RR3.opus
</region>

<region>
hivel=127
key=G#2
lovel=87
offset=938
sample=Trombone_staccatissimo_FF_G#1_RR3.opus
</region>

<region>
hivel=127
key=F4
lovel=87
offset=252
sample=Trombone_staccatissimo_FF_F3_RR3.opus
</region>

<region>
hivel=127
key=F3
lovel=87
offset=330
sample=Trombone_staccatissimo_FF_F2_RR3.opus
</region>

<region>
hivel=127
key=F2
lovel=87
sample=Trombone_staccatissimo_FF_F1_RR3.opus
</region>

<region>
hivel=127
key=F#4
lovel=87
offset=308
sample=Trombone_staccatissimo_FF_F#3_RR3.opus
</region>

<region>
hivel=127
key=F#3
lovel=87
offset=503
sample=Trombone_staccatissimo_FF_F#2_RR3.opus
</region>

<region>
hivel=127
key=F#2
lovel=87
offset=1003
sample=Trombone_staccatissimo_FF_F#1_RR3.opus
</region>

<region>
hivel=127
key=E4
lovel=87
offset=143
sample=Trombone_staccatissimo_FF_E3_RR3.opus
</region>

<region>
hivel=127
key=E3
lovel=87
offset=450
sample=Trombone_staccatissimo_FF_E2_RR3.opus
</region>

<region>
hikey=E2
hivel=127
lokey=C1
lovel=87
offset=1787
pitch_keycenter=E2
sample=Trombone_staccatissimo_FF_E1_RR3.opus
</region>

<region>
hivel=127
key=D4
lovel=87
offset=191
sample=Trombone_staccatissimo_FF_D3_RR3.opus
</region>

<region>
hivel=127
key=D3
lovel=87
offset=168
sample=Trombone_staccatissimo_FF_D2_RR3.opus
</region>

<region>
hivel=127
key=D#4
lovel=87
offset=180
sample=Trombone_staccatissimo_FF_D#3_RR3.opus
</region>

<region>
hivel=127
key=D#3
lovel=87
offset=133
sample=Trombone_staccatissimo_FF_D#2_RR3.opus
</region>

<region>
hikey=D#5
hivel=127
lokey=C5
lovel=87
offset=571
pitch_keycenter=C5
sample=Trombone_staccatissimo_FF_C4_RR3.opus
</region>

<region>
hikey=C4
hivel=127
lokey=C4
lovel=87
offset=286
sample=Trombone_staccatissimo_FF_C3_RR3.opus
</region>

<region>
hivel=127
key=C3
lovel=87
offset=1307
sample=Trombone_staccatissimo_FF_C2_RR3.opus
</region>

<region>
hivel=127
key=C#4
lovel=87
offset=228
sample=Trombone_staccatissimo_FF_C#3_RR3.opus
</region>

<region>
hivel=127
key=C#3
lovel=87
offset=536
sample=Trombone_staccatissimo_FF_C#2_RR3.opus
</region>

<region>
hivel=127
key=B4
lovel=87
offset=793
sample=Trombone_staccatissimo_FF_B3_RR3.opus
</region>

<region>
hivel=127
key=B3
lovel=87
offset=125
sample=Trombone_staccatissimo_FF_B2_RR3.opus
</region>

<region>
hivel=127
key=B2
lovel=87
offset=354
sample=Trombone_staccatissimo_FF_B1_RR3.opus
</region>

<region>
hivel=127
key=A4
lovel=87
offset=208
sample=Trombone_staccatissimo_FF_A3_RR3.opus
</region>

<region>
hivel=127
key=A3
lovel=87
offset=97
sample=Trombone_staccatissimo_FF_A2_RR3.opus
</region>

<region>
hivel=127
key=A2
lovel=87
offset=846
sample=Trombone_staccatissimo_FF_A1_RR3.opus
</region>

<region>
hivel=127
key=A#4
lovel=87
offset=498
sample=Trombone_staccatissimo_FF_A#3_RR3.opus
</region>

<region>
hivel=127
key=A#3
lovel=87
offset=117
sample=Trombone_staccatissimo_FF_A#2_RR3.opus
</region>

<region>
hivel=127
key=A#2
lovel=87
offset=756
sample=Trombone_staccatissimo_FF_A#1_RR3.opus
</region>
</group>

<group>
group_label=RR4
seq_length=8
seq_position=4

<region>
hivel=42
key=G4
lovel=0
sample=Trombone_staccatissimo_PP_G3_RR4.opus
</region>

<region>
hivel=42
key=G3
lovel=0
offset=860
sample=Trombone_staccatissimo_PP_G2_RR4.opus
</region>

<region>
hivel=42
key=G2
lovel=0
offset=4834
sample=Trombone_staccatissimo_PP_G1_RR4.opus
</region>

<region>
hivel=42
key=G#4
lovel=0
offset=143
sample=Trombone_staccatissimo_PP_G#3_RR4.opus
</region>

<region>
hivel=42
key=G#3
lovel=0
offset=462
sample=Trombone_staccatissimo_PP_G#2_RR4.opus
</region>

<region>
hivel=42
key=G#2
lovel=0
offset=1236
sample=Trombone_staccatissimo_PP_G#1_RR4.opus
</region>

<region>
hivel=42
key=F4
lovel=0
offset=411
sample=Trombone_staccatissimo_PP_F3_RR4.opus
</region>

<region>
hivel=42
key=F3
lovel=0
offset=2860
sample=Trombone_staccatissimo_PP_F2_RR4.opus
</region>

<region>
hivel=42
key=F2
lovel=0
offset=5158
sample=Trombone_staccatissimo_PP_F1_RR4.opus
</region>

<region>
hivel=42
key=F#4
lovel=0
offset=145
sample=Trombone_staccatissimo_PP_F#3_RR4.opus
</region>

<region>
hivel=42
key=F#3
lovel=0
offset=800
sample=Trombone_staccatissimo_PP_F#2_RR4.opus
</region>

<region>
hivel=42
key=F#2
lovel=0
offset=2146
sample=Trombone_staccatissimo_PP_F#1_RR4.opus
</region>

<region>
hivel=42
key=E4
lovel=0
offset=6036
sample=Trombone_staccatissimo_PP_E3_RR4.opus
</region>

<region>
hivel=42
key=E3
lovel=0
offset=5905
sample=Trombone_staccatissimo_PP_E2_RR4.opus
</region>

<region>
hikey=E2
hivel=42
lokey=C1
lovel=0
offset=4296
pitch_keycenter=E2
sample=Trombone_staccatissimo_PP_E1_RR4.opus
</region>

<region>
hivel=42
key=D4
lovel=0
offset=391
sample=Trombone_staccatissimo_PP_D3_RR4.opus
</region>

<region>
hivel=42
key=D3
lovel=0
offset=1756
sample=Trombone_staccatissimo_PP_D2_RR4.opus
</region>

<region>
hivel=42
key=D#4
lovel=0
offset=518
sample=Trombone_staccatissimo_PP_D#3_RR4.opus
</region>

<region>
hivel=42
key=D#3
lovel=0
offset=230
sample=Trombone_staccatissimo_PP_D#2_RR4.opus
</region>

<region>
hikey=D#5
hivel=42
lokey=C5
lovel=0
offset=335
pitch_keycenter=C5
sample=Trombone_staccatissimo_PP_C4_RR4.opus
</region>

<region>
hikey=C4
hivel=42
lokey=C4
lovel=0
offset=8066
sample=Trombone_staccatissimo_PP_C3_RR4.opus
</region>

<region>
hivel=42
key=C3
lovel=0
offset=5451
sample=Trombone_staccatissimo_PP_C2_RR4.opus
</region>

<region>
hivel=42
key=C#4
lovel=0
offset=38708
sample=Trombone_staccatissimo_PP_C#3_RR4.opus
</region>

<region>
hivel=42
key=C#3
lovel=0
offset=2655
sample=Trombone_staccatissimo_PP_C#2_RR4.opus
</region>

<region>
hivel=42
key=B4
lovel=0
offset=216
sample=Trombone_staccatissimo_PP_B3_RR4.opus
</region>

<region>
hivel=42
key=B3
lovel=0
offset=1841
sample=Trombone_staccatissimo_PP_B2_RR4.opus
</region>

<region>
hivel=42
key=B2
lovel=0
offset=5201
sample=Trombone_staccatissimo_PP_B1_RR4.opus
</region>

<region>
hivel=42
key=A4
lovel=0
offset=4699
sample=Trombone_staccatissimo_PP_A3_RR4.opus
</region>

<region>
hivel=42
key=A3
lovel=0
offset=2568
sample=Trombone_staccatissimo_PP_A2_RR4.opus
</region>

<region>
hivel=42
key=A2
lovel=0
offset=939
sample=Trombone_staccatissimo_PP_A1_RR4.opus
</region>

<region>
hivel=42
key=A#4
lovel=0
sample=Trombone_staccatissimo_PP_A#3_RR4.opus
</region>

<region>
hivel=42
key=A#3
lovel=0
offset=342
sample=Trombone_staccatissimo_PP_A#2_RR4.opus
</region>

<region>
hivel=42
key=A#2
lovel=0
offset=4610
sample=Trombone_staccatissimo_PP_A#1_RR4.opus
</region>

<region>
hivel=86
key=G4
lovel=43
offset=2
sample=Trombone_staccatissimo_MF_G3_RR4.opus
</region>

<region>
hivel=86
key=G3
lovel=43
offset=463
sample=Trombone_staccatissimo_MF_G2_RR4.opus
</region>

<region>
hivel=86
key=G2
lovel=43
offset=1452
sample=Trombone_staccatissimo_MF_G1_RR4.opus
</region>

<region>
hivel=86
key=G#4
lovel=43
offset=50
sample=Trombone_staccatissimo_MF_G#3_RR4.opus
</region>

<region>
hivel=86
key=G#3
lovel=43
offset=260
sample=Trombone_staccatissimo_MF_G#2_RR4.opus
</region>

<region>
hivel=86
key=G#2
lovel=43
offset=834
sample=Trombone_staccatissimo_MF_G#1_RR4.opus
</region>

<region>
hivel=86
key=F4
lovel=43
offset=292
sample=Trombone_staccatissimo_MF_F3_RR4.opus
</region>

<region>
hivel=86
key=F3
lovel=43
offset=623
sample=Trombone_staccatissimo_MF_F2_RR4.opus
</region>

<region>
hivel=86
key=F2
lovel=43
offset=4981
sample=Trombone_staccatissimo_MF_F1_RR4.opus
</region>

<region>
hivel=86
key=F#4
lovel=43
offset=34
sample=Trombone_staccatissimo_MF_F#3_RR4.opus
</region>

<region>
hivel=86
key=F#3
lovel=43
offset=567
sample=Trombone_staccatissimo_MF_F#2_RR4.opus
</region>

<region>
hivel=86
key=F#2
lovel=43
offset=1560
sample=Trombone_staccatissimo_MF_F#1_RR4.opus
</region>

<region>
hivel=86
key=E4
lovel=43
offset=641
sample=Trombone_staccatissimo_MF_E3_RR4.opus
</region>

<region>
hivel=86
key=E3
lovel=43
offset=754
sample=Trombone_staccatissimo_MF_E2_RR4.opus
</region>

<region>
hikey=E2
hivel=86
lokey=C1
lovel=43
offset=1245
pitch_keycenter=E2
sample=Trombone_staccatissimo_MF_E1_RR4.opus
</region>

<region>
hivel=86
key=D4
lovel=43
offset=159
sample=Trombone_staccatissimo_MF_D3_RR4.opus
</region>

<region>
hivel=86
key=D3
lovel=43
offset=546
sample=Trombone_staccatissimo_MF_D2_RR4.opus
</region>

<region>
hivel=86
key=D#4
lovel=43
offset=413
sample=Trombone_staccatissimo_MF_D#3_RR4.opus
</region>

<region>
hivel=86
key=D#3
lovel=43
offset=535
sample=Trombone_staccatissimo_MF_D#2_RR4.opus
</region>

<region>
hikey=D#5
hivel=86
lokey=C5
lovel=43
pitch_keycenter=C5
sample=Trombone_staccatissimo_MF_C4_RR4.opus
</region>

<region>
hikey=C4
hivel=86
lokey=C4
lovel=43
offset=409
sample=Trombone_staccatissimo_MF_C3_RR4.opus
</region>

<region>
hivel=86
key=C3
lovel=43
offset=614
sample=Trombone_staccatissimo_MF_C2_RR4.opus
</region>

<region>
hivel=86
key=C#4
lovel=43
offset=343
sample=Trombone_staccatissimo_MF_C#3_RR4.opus
</region>

<region>
hivel=86
key=C#3
lovel=43
offset=551
sample=Trombone_staccatissimo_MF_C#2_RR4.opus
</region>

<region>
hivel=86
key=B4
lovel=43
offset=348
sample=Trombone_staccatissimo_MF_B3_RR4.opus
</region>

<region>
hivel=86
key=B3
lovel=43
offset=445
sample=Trombone_staccatissimo_MF_B2_RR4.opus
</region>

<region>
hivel=86
key=B2
lovel=43
offset=583
sample=Trombone_staccatissimo_MF_B1_RR4.opus
</region>

<region>
hivel=86
key=A4
lovel=43
offset=140
sample=Trombone_staccatissimo_MF_A3_RR4.opus
</region>

<region>
hivel=86
key=A3
lovel=43
offset=341
sample=Trombone_staccatissimo_MF_A2_RR4.opus
</region>

<region>
hivel=86
key=A2
lovel=43
offset=394
sample=Trombone_staccatissimo_MF_A1_RR4.opus
</region>

<region>
hivel=86
key=A#4
lovel=43
offset=291
sample=Trombone_staccatissimo_MF_A#3_RR4.opus
</region>

<region>
hivel=86
key=A#3
lovel=43
offset=314
sample=Trombone_staccatissimo_MF_A#2_RR4.opus
</region>

<region>
hivel=86
key=A#2
lovel=43
offset=695
sample=Trombone_staccatissimo_MF_A#1_RR4.opus
</region>

<region>
hivel=127
key=G4
lovel=87
offset=169
sample=Trombone_staccatissimo_FF_G3_RR4.opus
</region>

<region>
hivel=127
key=G3
lovel=87
offset=2
sample=Trombone_staccatissimo_FF_G2_RR4.opus
</region>

<region>
hivel=127
key=G2
lovel=87
offset=1427
sample=Trombone_staccatissimo_FF_G1_RR4.opus
</region>

<region>
hivel=127
key=G#4
lovel=87
offset=228
sample=Trombone_staccatissimo_FF_G#3_RR4.opus
</region>

<region>
hivel=127
key=G#3
lovel=87
sample=Trombone_staccatissimo_FF_G#2_RR4.opus
</region>

<region>
hivel=127
key=G#2
lovel=87
offset=977
sample=Trombone_staccatissimo_FF_G#1_RR4.opus
</region>

<region>
hivel=127
key=F4
lovel=87
offset=217
sample=Trombone_staccatissimo_FF_F3_RR4.opus
</region>

<region>
hivel=127
key=F3
lovel=87
offset=26
sample=Trombone_staccatissimo_FF_F2_RR4.opus
</region>

<region>
hivel=127
key=F2
lovel=87
offset=135
sample=Trombone_staccatissimo_FF_F1_RR4.opus
</region>

<region>
hivel=127
key=F#4
lovel=87
offset=164
sample=Trombone_staccatissimo_FF_F#3_RR4.opus
</region>

<region>
hivel=127
key=F#3
lovel=87
offset=76
sample=Trombone_staccatissimo_FF_F#2_RR4.opus
</region>

<region>
hivel=127
key=F#2
lovel=87
offset=577
sample=Trombone_staccatissimo_FF_F#1_RR4.opus
</region>

<region>
hivel=127
key=E4
lovel=87
offset=156
sample=Trombone_staccatissimo_FF_E3_RR4.opus
</region>

<region>
hivel=127
key=E3
lovel=87
offset=125
sample=Trombone_staccatissimo_FF_E2_RR4.opus
</region>

<region>
hikey=E2
hivel=127
lokey=C1
lovel=87
offset=1788
pitch_keycenter=E2
sample=Trombone_staccatissimo_FF_E1_RR4.opus
</region>

<region>
hivel=127
key=D4
lovel=87
offset=337
sample=Trombone_staccatissimo_FF_D3_RR4.opus
</region>

<region>
hivel=127
key=D3
lovel=87
offset=210
sample=Trombone_staccatissimo_FF_D2_RR4.opus
</region>

<region>
hivel=127
key=D#4
lovel=87
offset=166
sample=Trombone_staccatissimo_FF_D#3_RR4.opus
</region>

<region>
hivel=127
key=D#3
lovel=87
offset=442
sample=Trombone_staccatissimo_FF_D#2_RR4.opus
</region>

<region>
hikey=D#5
hivel=127
lokey=C5
lovel=87
offset=514
pitch_keycenter=C5
sample=Trombone_staccatissimo_FF_C4_RR4.opus
</region>

<region>
hikey=C4
hivel=127
lokey=C4
lovel=87
offset=406
sample=Trombone_staccatissimo_FF_C3_RR4.opus
</region>

<region>
hivel=127
key=C3
lovel=87
offset=682
sample=Trombone_staccatissimo_FF_C2_RR4.opus
</region>

<region>
hivel=127
key=C#4
lovel=87
offset=226
sample=Trombone_staccatissimo_FF_C#3_RR4.opus
</region>

<region>
hivel=127
key=C#3
lovel=87
offset=585
sample=Trombone_staccatissimo_FF_C#2_RR4.opus
</region>

<region>
hivel=127
key=B4
lovel=87
offset=351
sample=Trombone_staccatissimo_FF_B3_RR4.opus
</region>

<region>
hivel=127
key=B3
lovel=87
offset=293
sample=Trombone_staccatissimo_FF_B2_RR4.opus
</region>

<region>
hivel=127
key=B2
lovel=87
offset=345
sample=Trombone_staccatissimo_FF_B1_RR4.opus
</region>

<region>
hivel=127
key=A4
lovel=87
offset=348
sample=Trombone_staccatissimo_FF_A3_RR4.opus
</region>

<region>
hivel=127
key=A3
lovel=87
sample=Trombone_staccatissimo_FF_A2_RR4.opus
</region>

<region>
hivel=127
key=A2
lovel=87
offset=866
sample=Trombone_staccatissimo_FF_A1_RR4.opus
</region>

<region>
hivel=127
key=A#4
lovel=87
offset=152
sample=Trombone_staccatissimo_FF_A#3_RR4.opus
</region>

<region>
hivel=127
key=A#3
lovel=87
sample=Trombone_staccatissimo_FF_A#2_RR4.opus
</region>

<region>
hivel=127
key=A#2
lovel=87
offset=379
sample=Trombone_staccatissimo_FF_A#1_RR4.opus
</region>
</group>

<group>
group_label=RR5
seq_length=8
seq_position=5

<region>
hivel=42
key=G4
lovel=0
sample=Trombone_staccatissimo_PP_G3_RR5.opus
</region>

<region>
hivel=42
key=G3
lovel=0
offset=803
sample=Trombone_staccatissimo_PP_G2_RR5.opus
</region>

<region>
hivel=42
key=G2
lovel=0
offset=3726
sample=Trombone_staccatissimo_PP_G1_RR5.opus
</region>

<region>
hivel=42
key=G#4
lovel=0
sample=Trombone_staccatissimo_PP_G#3_RR5.opus
</region>

<region>
hivel=42
key=G#3
lovel=0
offset=6326
sample=Trombone_staccatissimo_PP_G#2_RR5.opus
</region>

<region>
hivel=42
key=G#2
lovel=0
offset=3973
sample=Trombone_staccatissimo_PP_G#1_RR5.opus
</region>

<region>
hivel=42
key=F4
lovel=0
offset=315
sample=Trombone_staccatissimo_PP_F3_RR5.opus
</region>

<region>
hivel=42
key=F3
lovel=0
offset=1369
sample=Trombone_staccatissimo_PP_F2_RR5.opus
</region>

<region>
hivel=42
key=F2
lovel=0
offset=3792
sample=Trombone_staccatissimo_PP_F1_RR5.opus
</region>

<region>
hivel=42
key=F#4
lovel=0
offset=33
sample=Trombone_staccatissimo_PP_F#3_RR5.opus
</region>

<region>
hivel=42
key=F#3
lovel=0
offset=548
sample=Trombone_staccatissimo_PP_F#2_RR5.opus
</region>

<region>
hivel=42
key=F#2
lovel=0
offset=2704
sample=Trombone_staccatissimo_PP_F#1_RR5.opus
</region>

<region>
hivel=42
key=E4
lovel=0
sample=Trombone_staccatissimo_PP_E3_RR5.opus
</region>

<region>
hivel=42
key=E3
lovel=0
offset=5557
sample=Trombone_staccatissimo_PP_E2_RR5.opus
</region>

<region>
hikey=E2
hivel=42
lokey=C1
lovel=0
offset=5791
pitch_keycenter=E2
sample=Trombone_staccatissimo_PP_E1_RR5.opus
</region>

<region>
hivel=42
key=D4
lovel=0
offset=635
sample=Trombone_staccatissimo_PP_D3_RR5.opus
</region>

<region>
hivel=42
key=D3
lovel=0
offset=2341
sample=Trombone_staccatissimo_PP_D2_RR5.opus
</region>

<region>
hivel=42
key=D#4
lovel=0
offset=6351
sample=Trombone_staccatissimo_PP_D#3_RR5.opus
</region>

<region>
hivel=42
key=D#3
lovel=0
offset=408
sample=Trombone_staccatissimo_PP_D#2_RR5.opus
</region>

<region>
hikey=D#5
hivel=42
lokey=C5
lovel=0
offset=262
pitch_keycenter=C5
sample=Trombone_staccatissimo_PP_C4_RR5.opus
</region>

<region>
hikey=C4
hivel=42
lokey=C4
lovel=0
offset=1300
sample=Trombone_staccatissimo_PP_C3_RR5.opus
</region>

<region>
hivel=42
key=C3
lovel=0
offset=1760
sample=Trombone_staccatissimo_PP_C2_RR5.opus
</region>

<region>
hivel=42
key=C#4
lovel=0
sample=Trombone_staccatissimo_PP_C#3_RR5.opus
</region>

<region>
hivel=42
key=C#3
lovel=0
offset=3603
sample=Trombone_staccatissimo_PP_C#2_RR5.opus
</region>

<region>
hivel=42
key=B4
lovel=0
sample=Trombone_staccatissimo_PP_B3_RR5.opus
</region>

<region>
hivel=42
key=B3
lovel=0
offset=210
sample=Trombone_staccatissimo_PP_B2_RR5.opus
</region>

<region>
hivel=42
key=B2
lovel=0
offset=7866
sample=Trombone_staccatissimo_PP_B1_RR5.opus
</region>

<region>
hivel=42
key=A4
lovel=0
offset=374
sample=Trombone_staccatissimo_PP_A3_RR5.opus
</region>

<region>
hivel=42
key=A3
lovel=0
offset=3425
sample=Trombone_staccatissimo_PP_A2_RR5.opus
</region>

<region>
hivel=42
key=A2
lovel=0
offset=3947
sample=Trombone_staccatissimo_PP_A1_RR5.opus
</region>

<region>
hivel=42
key=A#4
lovel=0
sample=Trombone_staccatissimo_PP_A#3_RR5.opus
</region>

<region>
hivel=42
key=A#3
lovel=0
offset=241
sample=Trombone_staccatissimo_PP_A#2_RR5.opus
</region>

<region>
hivel=42
key=A#2
lovel=0
offset=4801
sample=Trombone_staccatissimo_PP_A#1_RR5.opus
</region>

<region>
hivel=86
key=G4
lovel=43
sample=Trombone_staccatissimo_MF_G3_RR5.opus
</region>

<region>
hivel=86
key=G3
lovel=43
offset=469
sample=Trombone_staccatissimo_MF_G2_RR5.opus
</region>

<region>
hivel=86
key=G2
lovel=43
offset=1437
sample=Trombone_staccatissimo_MF_G1_RR5.opus
</region>

<region>
hivel=86
key=G#4
lovel=43
offset=416
sample=Trombone_staccatissimo_MF_G#3_RR5.opus
</region>

<region>
hivel=86
key=G#3
lovel=43
offset=413
sample=Trombone_staccatissimo_MF_G#2_RR5.opus
</region>

<region>
hivel=86
key=G#2
lovel=43
offset=848
sample=Trombone_staccatissimo_MF_G#1_RR5.opus
</region>

<region>
hivel=86
key=F4
lovel=43
sample=Trombone_staccatissimo_MF_F3_RR5.opus
</region>

<region>
hivel=86
key=F3
lovel=43
offset=357
sample=Trombone_staccatissimo_MF_F2_RR5.opus
</region>

<region>
hivel=86
key=F2
lovel=43
offset=1673
sample=Trombone_staccatissimo_MF_F1_RR5.opus
</region>

<region>
hivel=86
key=F#4
lovel=43
offset=39
sample=Trombone_staccatissimo_MF_F#3_RR5.opus
</region>

<region>
hivel=86
key=F#3
lovel=43
offset=566
sample=Trombone_staccatissimo_MF_F#2_RR5.opus
</region>

<region>
hivel=86
key=F#2
lovel=43
offset=1537
sample=Trombone_staccatissimo_MF_F#1_RR5.opus
</region>

<region>
hivel=86
key=E4
lovel=43
offset=475
sample=Trombone_staccatissimo_MF_E3_RR5.opus
</region>

<region>
hivel=86
key=E3
lovel=43
offset=698
sample=Trombone_staccatissimo_MF_E2_RR5.opus
</region>

<region>
hikey=E2
hivel=86
lokey=C1
lovel=43
offset=1272
pitch_keycenter=E2
sample=Trombone_staccatissimo_MF_E1_RR5.opus
</region>

<region>
hivel=86
key=D4
lovel=43
offset=293
sample=Trombone_staccatissimo_MF_D3_RR5.opus
</region>

<region>
hivel=86
key=D3
lovel=43
offset=586
sample=Trombone_staccatissimo_MF_D2_RR5.opus
</region>

<region>
hivel=86
key=D#4
lovel=43
offset=422
sample=Trombone_staccatissimo_MF_D#3_RR5.opus
</region>

<region>
hivel=86
key=D#3
lovel=43
offset=770
sample=Trombone_staccatissimo_MF_D#2_RR5.opus
</region>

<region>
hikey=D#5
hivel=86
lokey=C5
lovel=43
pitch_keycenter=C5
sample=Trombone_staccatissimo_MF_C4_RR5.opus
</region>

<region>
hikey=C4
hivel=86
lokey=C4
lovel=43
offset=404
sample=Trombone_staccatissimo_MF_C3_RR5.opus
</region>

<region>
hivel=86
key=C3
lovel=43
offset=567
sample=Trombone_staccatissimo_MF_C2_RR5.opus
</region>

<region>
hivel=86
key=C#4
lovel=43
offset=185
sample=Trombone_staccatissimo_MF_C#3_RR5.opus
</region>

<region>
hivel=86
key=C#3
lovel=43
offset=666
sample=Trombone_staccatissimo_MF_C#2_RR5.opus
</region>

<region>
hivel=86
key=B4
lovel=43
offset=125
sample=Trombone_staccatissimo_MF_B3_RR5.opus
</region>

<region>
hivel=86
key=B3
lovel=43
offset=480
sample=Trombone_staccatissimo_MF_B2_RR5.opus
</region>

<region>
hivel=86
key=B2
lovel=43
offset=652
sample=Trombone_staccatissimo_MF_B1_RR5.opus
</region>

<region>
hivel=86
key=A4
lovel=43
sample=Trombone_staccatissimo_MF_A3_RR5.opus
</region>

<region>
hivel=86
key=A3
lovel=43
offset=338
sample=Trombone_staccatissimo_MF_A2_RR5.opus
</region>

<region>
hivel=86
key=A2
lovel=43
offset=4542
sample=Trombone_staccatissimo_MF_A1_RR5.opus
</region>

<region>
hivel=86
key=A#4
lovel=43
sample=Trombone_staccatissimo_MF_A#3_RR5.opus
</region>

<region>
hivel=86
key=A#3
lovel=43
offset=295
sample=Trombone_staccatissimo_MF_A#2_RR5.opus
</region>

<region>
hivel=86
key=A#2
lovel=43
offset=696
sample=Trombone_staccatissimo_MF_A#1_RR5.opus
</region>

<region>
hivel=127
key=G4
lovel=87
offset=450
sample=Trombone_staccatissimo_FF_G3_RR5.opus
</region>

<region>
hivel=127
key=G3
lovel=87
offset=3
sample=Trombone_staccatissimo_FF_G2_RR5.opus
</region>

<region>
hivel=127
key=G2
lovel=87
offset=533
sample=Trombone_staccatissimo_FF_G1_RR5.opus
</region>

<region>
hivel=127
key=G#4
lovel=87
offset=208
sample=Trombone_staccatissimo_FF_G#3_RR5.opus
</region>

<region>
hivel=127
key=G#3
lovel=87
sample=Trombone_staccatissimo_FF_G#2_RR5.opus
</region>

<region>
hivel=127
key=G#2
lovel=87
offset=465
sample=Trombone_staccatissimo_FF_G#1_RR5.opus
</region>

<region>
hivel=127
key=F4
lovel=87
offset=216
sample=Trombone_staccatissimo_FF_F3_RR5.opus
</region>

<region>
hivel=127
key=F3
lovel=87
offset=22
sample=Trombone_staccatissimo_FF_F2_RR5.opus
</region>

<region>
hivel=127
key=F2
lovel=87
offset=127
sample=Trombone_staccatissimo_FF_F1_RR5.opus
</region>

<region>
hivel=127
key=F#4
lovel=87
offset=294
sample=Trombone_staccatissimo_FF_F#3_RR5.opus
</region>

<region>
hivel=127
key=F#3
lovel=87
offset=561
sample=Trombone_staccatissimo_FF_F#2_RR5.opus
</region>

<region>
hivel=127
key=F#2
lovel=87
offset=585
sample=Trombone_staccatissimo_FF_F#1_RR5.opus
</region>

<region>
hivel=127
key=E4
lovel=87
offset=136
sample=Trombone_staccatissimo_FF_E3_RR5.opus
</region>

<region>
hivel=127
key=E3
lovel=87
offset=128
sample=Trombone_staccatissimo_FF_E2_RR5.opus
</region>

<region>
hikey=E2
hivel=127
lokey=C1
lovel=87
offset=1339
pitch_keycenter=E2
sample=Trombone_staccatissimo_FF_E1_RR5.opus
</region>

<region>
hivel=127
key=D4
lovel=87
offset=463
sample=Trombone_staccatissimo_FF_D3_RR5.opus
</region>

<region>
hivel=127
key=D3
lovel=87
offset=192
sample=Trombone_staccatissimo_FF_D2_RR5.opus
</region>

<region>
hivel=127
key=D#4
lovel=87
offset=271
sample=Trombone_staccatissimo_FF_D#3_RR5.opus
</region>

<region>
hivel=127
key=D#3
lovel=87
offset=169
sample=Trombone_staccatissimo_FF_D#2_RR5.opus
</region>

<region>
hikey=D#5
hivel=127
lokey=C5
lovel=87
offset=527
pitch_keycenter=C5
sample=Trombone_staccatissimo_FF_C4_RR5.opus
</region>

<region>
hikey=C4
hivel=127
lokey=C4
lovel=87
offset=250
sample=Trombone_staccatissimo_FF_C3_RR5.opus
</region>

<region>
hivel=127
key=C3
lovel=87
offset=660
sample=Trombone_staccatissimo_FF_C2_RR5.opus
</region>

<region>
hivel=127
key=C#4
lovel=87
offset=212
sample=Trombone_staccatissimo_FF_C#3_RR5.opus
</region>

<region>
hivel=127
key=C#3
lovel=87
offset=489
sample=Trombone_staccatissimo_FF_C#2_RR5.opus
</region>

<region>
hivel=127
key=B4
lovel=87
offset=222
sample=Trombone_staccatissimo_FF_B3_RR5.opus
</region>

<region>
hivel=127
key=B3
lovel=87
offset=490
sample=Trombone_staccatissimo_FF_B2_RR5.opus
</region>

<region>
hivel=127
key=B2
lovel=87
offset=354
sample=Trombone_staccatissimo_FF_B1_RR5.opus
</region>

<region>
hivel=127
key=A4
lovel=87
offset=355
sample=Trombone_staccatissimo_FF_A3_RR5.opus
</region>

<region>
hivel=127
key=A3
lovel=87
offset=200
sample=Trombone_staccatissimo_FF_A2_RR5.opus
</region>

<region>
hivel=127
key=A2
lovel=87
offset=842
sample=Trombone_staccatissimo_FF_A1_RR5.opus
</region>

<region>
hivel=127
key=A#4
lovel=87
offset=130
sample=Trombone_staccatissimo_FF_A#3_RR5.opus
</region>

<region>
hivel=127
key=A#3
lovel=87
offset=297
sample=Trombone_staccatissimo_FF_A#2_RR5.opus
</region>

<region>
hivel=127
key=A#2
lovel=87
offset=752
sample=Trombone_staccatissimo_FF_A#1_RR5.opus
</region>
</group>

<group>
group_label=RR6
seq_length=8
seq_position=6

<region>
hivel=42
key=G4
lovel=0
offset=4673
sample=Trombone_staccatissimo_PP_G3_RR6.opus
</region>

<region>
hivel=42
key=G3
lovel=0
offset=263
sample=Trombone_staccatissimo_PP_G2_RR6.opus
</region>

<region>
hivel=42
key=G2
lovel=0
offset=6212
sample=Trombone_staccatissimo_PP_G1_RR6.opus
</region>

<region>
hivel=42
key=G#4
lovel=0
sample=Trombone_staccatissimo_PP_G#3_RR6.opus
</region>

<region>
hivel=42
key=G#3
lovel=0
offset=434
sample=Trombone_staccatissimo_PP_G#2_RR6.opus
</region>

<region>
hivel=42
key=G#2
lovel=0
offset=4753
sample=Trombone_staccatissimo_PP_G#1_RR6.opus
</region>

<region>
hivel=42
key=F4
lovel=0
offset=301
sample=Trombone_staccatissimo_PP_F3_RR6.opus
</region>

<region>
hivel=42
key=F3
lovel=0
offset=599
sample=Trombone_staccatissimo_PP_F2_RR6.opus
</region>

<region>
hivel=42
key=F2
lovel=0
offset=5603
sample=Trombone_staccatissimo_PP_F1_RR6.opus
</region>

<region>
hivel=42
key=F#4
lovel=0
offset=240
sample=Trombone_staccatissimo_PP_F#3_RR6.opus
</region>

<region>
hivel=42
key=F#3
lovel=0
offset=1086
sample=Trombone_staccatissimo_PP_F#2_RR6.opus
</region>

<region>
hivel=42
key=F#2
lovel=0
offset=3029
sample=Trombone_staccatissimo_PP_F#1_RR6.opus
</region>

<region>
hivel=42
key=E4
lovel=0
offset=6508
sample=Trombone_staccatissimo_PP_E3_RR6.opus
</region>

<region>
hivel=42
key=E3
lovel=0
offset=5747
sample=Trombone_staccatissimo_PP_E2_RR6.opus
</region>

<region>
hikey=E2
hivel=42
lokey=C1
lovel=0
offset=4302
pitch_keycenter=E2
sample=Trombone_staccatissimo_PP_E1_RR6.opus
</region>

<region>
hivel=42
key=D4
lovel=0
offset=676
sample=Trombone_staccatissimo_PP_D3_RR6.opus
</region>

<region>
hivel=42
key=D3
lovel=0
offset=3290
sample=Trombone_staccatissimo_PP_D2_RR6.opus
</region>

<region>
hivel=42
key=D#4
lovel=0
sample=Trombone_staccatissimo_PP_D#3_RR6.opus
</region>

<region>
hivel=42
key=D#3
lovel=0
offset=5667
sample=Trombone_staccatissimo_PP_D#2_RR6.opus
</region>

<region>
hikey=D#5
hivel=42
lokey=C5
lovel=0
pitch_keycenter=C5
sample=Trombone_staccatissimo_PP_C4_RR6.opus
</region>

<region>
hikey=C4
hivel=42
lokey=C4
lovel=0
offset=856
sample=Trombone_staccatissimo_PP_C3_RR6.opus
</region>

<region>
hivel=42
key=C3
lovel=0
sample=Trombone_staccatissimo_PP_C2_RR6.opus
</region>

<region>
hivel=42
key=C#4
lovel=0
offset=36973
sample=Trombone_staccatissimo_PP_C#3_RR6.opus
</region>

<region>
hivel=42
key=C#3
lovel=0
offset=2179
sample=Trombone_staccatissimo_PP_C#2_RR6.opus
</region>

<region>
hivel=42
key=B4
lovel=0
sample=Trombone_staccatissimo_PP_B3_RR6.opus
</region>

<region>
hivel=42
key=B3
lovel=0
offset=1595
sample=Trombone_staccatissimo_PP_B2_RR6.opus
</region>

<region>
hivel=42
key=B2
lovel=0
offset=5011
sample=Trombone_staccatissimo_PP_B1_RR6.opus
</region>

<region>
hivel=42
key=A4
lovel=0
offset=3386
sample=Trombone_staccatissimo_PP_A3_RR6.opus
</region>

<region>
hivel=42
key=A3
lovel=0
sample=Trombone_staccatissimo_PP_A2_RR6.opus
</region>

<region>
hivel=42
key=A2
lovel=0
offset=3550
sample=Trombone_staccatissimo_PP_A1_RR6.opus
</region>

<region>
hivel=42
key=A#4
lovel=0
sample=Trombone_staccatissimo_PP_A#3_RR6.opus
</region>

<region>
hivel=42
key=A#3
lovel=0
offset=336
sample=Trombone_staccatissimo_PP_A#2_RR6.opus
</region>

<region>
hivel=42
key=A#2
lovel=0
offset=6856
sample=Trombone_staccatissimo_PP_A#1_RR6.opus
</region>

<region>
hivel=86
key=G4
lovel=43
sample=Trombone_staccatissimo_MF_G3_RR6.opus
</region>

<region>
hivel=86
key=G3
lovel=43
offset=474
sample=Trombone_staccatissimo_MF_G2_RR6.opus
</region>

<region>
hivel=86
key=G2
lovel=43
offset=1381
sample=Trombone_staccatissimo_MF_G1_RR6.opus
</region>

<region>
hivel=86
key=G#4
lovel=43
sample=Trombone_staccatissimo_MF_G#3_RR6.opus
</region>

<region>
hivel=86
key=G#3
lovel=43
offset=208
sample=Trombone_staccatissimo_MF_G#2_RR6.opus
</region>

<region>
hivel=86
key=G#2
lovel=43
offset=1358
sample=Trombone_staccatissimo_MF_G#1_RR6.opus
</region>

<region>
hivel=86
key=F4
lovel=43
offset=505
sample=Trombone_staccatissimo_MF_F3_RR6.opus
</region>

<region>
hivel=86
key=F3
lovel=43
offset=379
sample=Trombone_staccatissimo_MF_F2_RR6.opus
</region>

<region>
hivel=86
key=F2
lovel=43
offset=1603
sample=Trombone_staccatissimo_MF_F1_RR6.opus
</region>

<region>
hivel=86
key=F#4
lovel=43
offset=179
sample=Trombone_staccatissimo_MF_F#3_RR6.opus
</region>

<region>
hivel=86
key=F#3
lovel=43
offset=603
sample=Trombone_staccatissimo_MF_F#2_RR6.opus
</region>

<region>
hivel=86
key=F#2
lovel=43
offset=1528
sample=Trombone_staccatissimo_MF_F#1_RR6.opus
</region>

<region>
hivel=86
key=E4
lovel=43
offset=571
sample=Trombone_staccatissimo_MF_E3_RR6.opus
</region>

<region>
hivel=86
key=E3
lovel=43
offset=688
sample=Trombone_staccatissimo_MF_E2_RR6.opus
</region>

<region>
hikey=E2
hivel=86
lokey=C1
lovel=43
offset=1157
pitch_keycenter=E2
sample=Trombone_staccatissimo_MF_E1_RR6.opus
</region>

<region>
hivel=86
key=D4
lovel=43
offset=301
sample=Trombone_staccatissimo_MF_D3_RR6.opus
</region>

<region>
hivel=86
key=D3
lovel=43
offset=553
sample=Trombone_staccatissimo_MF_D2_RR6.opus
</region>

<region>
hivel=86
key=D#4
lovel=43
offset=314
sample=Trombone_staccatissimo_MF_D#3_RR6.opus
</region>

<region>
hivel=86
key=D#3
lovel=43
offset=475
sample=Trombone_staccatissimo_MF_D#2_RR6.opus
</region>

<region>
hikey=D#5
hivel=86
lokey=C5
lovel=43
pitch_keycenter=C5
sample=Trombone_staccatissimo_MF_C4_RR6.opus
</region>

<region>
hikey=C4
hivel=86
lokey=C4
lovel=43
offset=401
sample=Trombone_staccatissimo_MF_C3_RR6.opus
</region>

<region>
hivel=86
key=C3
lovel=43
offset=616
sample=Trombone_staccatissimo_MF_C2_RR6.opus
</region>

<region>
hivel=86
key=C#4
lovel=43
offset=327
sample=Trombone_staccatissimo_MF_C#3_RR6.opus
</region>

<region>
hivel=86
key=C#3
lovel=43
offset=763
sample=Trombone_staccatissimo_MF_C#2_RR6.opus
</region>

<region>
hivel=86
key=B4
lovel=43
offset=175
sample=Trombone_staccatissimo_MF_B3_RR6.opus
</region>

<region>
hivel=86
key=B3
lovel=43
offset=442
sample=Trombone_staccatissimo_MF_B2_RR6.opus
</region>

<region>
hivel=86
key=B2
lovel=43
offset=669
sample=Trombone_staccatissimo_MF_B1_RR6.opus
</region>

<region>
hivel=86
key=A4
lovel=43
sample=Trombone_staccatissimo_MF_A3_RR6.opus
</region>

<region>
hivel=86
key=A3
lovel=43
offset=340
sample=Trombone_staccatissimo_MF_A2_RR6.opus
</region>

<region>
hivel=86
key=A2
lovel=43
offset=762
sample=Trombone_staccatissimo_MF_A1_RR6.opus
</region>

<region>
hivel=86
key=A#4
lovel=43
sample=Trombone_staccatissimo_MF_A#3_RR6.opus
</region>

<region>
hivel=86
key=A#3
lovel=43
offset=129
sample=Trombone_staccatissimo_MF_A#2_RR6.opus
</region>

<region>
hivel=86
key=A#2
lovel=43
offset=578
sample=Trombone_staccatissimo_MF_A#1_RR6.opus
</region>

<region>
hivel=127
key=G4
lovel=87
offset=209
sample=Trombone_staccatissimo_FF_G3_RR6.opus
</region>

<region>
hivel=127
key=G3
lovel=87
offset=287
sample=Trombone_staccatissimo_FF_G2_RR6.opus
</region>

<region>
hivel=127
key=G2
lovel=87
offset=493
sample=Trombone_staccatissimo_FF_G1_RR6.opus
</region>

<region>
hivel=127
key=G#4
lovel=87
offset=300
sample=Trombone_staccatissimo_FF_G#3_RR6.opus
</region>

<region>
hivel=127
key=G#3
lovel=87
offset=213
sample=Trombone_staccatissimo_FF_G#2_RR6.opus
</region>

<region>
hivel=127
key=G#2
lovel=87
offset=470
sample=Trombone_staccatissimo_FF_G#1_RR6.opus
</region>

<region>
hivel=127
key=F4
lovel=87
offset=106
sample=Trombone_staccatissimo_FF_F3_RR6.opus
</region>

<region>
hivel=127
key=F3
lovel=87
sample=Trombone_staccatissimo_FF_F2_RR6.opus
</region>

<region>
hivel=127
key=F2
lovel=87
offset=646
sample=Trombone_staccatissimo_FF_F1_RR6.opus
</region>

<region>
hivel=127
key=F#4
lovel=87
offset=315
sample=Trombone_staccatissimo_FF_F#3_RR6.opus
</region>

<region>
hivel=127
key=F#3
lovel=87
sample=Trombone_staccatissimo_FF_F#2_RR6.opus
</region>

<region>
hivel=127
key=F#2
lovel=87
offset=583
sample=Trombone_staccatissimo_FF_F#1_RR6.opus
</region>

<region>
hivel=127
key=E4
lovel=87
offset=253
sample=Trombone_staccatissimo_FF_E3_RR6.opus
</region>

<region>
hivel=127
key=E3
lovel=87
offset=691
sample=Trombone_staccatissimo_FF_E2_RR6.opus
</region>

<region>
hikey=E2
hivel=127
lokey=C1
lovel=87
offset=1103
pitch_keycenter=E2
sample=Trombone_staccatissimo_FF_E1_RR6.opus
</region>

<region>
hivel=127
key=D4
lovel=87
offset=344
sample=Trombone_staccatissimo_FF_D3_RR6.opus
</region>

<region>
hivel=127
key=D3
lovel=87
offset=179
sample=Trombone_staccatissimo_FF_D2_RR6.opus
</region>

<region>
hivel=127
key=D#4
lovel=87
offset=262
sample=Trombone_staccatissimo_FF_D#3_RR6.opus
</region>

<region>
hivel=127
key=D#3
lovel=87
offset=159
sample=Trombone_staccatissimo_FF_D#2_RR6.opus
</region>

<region>
hikey=D#5
hivel=127
lokey=C5
lovel=87
offset=567
pitch_keycenter=C5
sample=Trombone_staccatissimo_FF_C4_RR6.opus
</region>

<region>
hikey=C4
hivel=127
lokey=C4
lovel=87
offset=260
sample=Trombone_staccatissimo_FF_C3_RR6.opus
</region>

<region>
hivel=127
key=C3
lovel=87
offset=662
sample=Trombone_staccatissimo_FF_C2_RR6.opus
</region>

<region>
hivel=127
key=C#4
lovel=87
offset=211
sample=Trombone_staccatissimo_FF_C#3_RR6.opus
</region>

<region>
hivel=127
key=C#3
lovel=87
offset=571
sample=Trombone_staccatissimo_FF_C#2_RR6.opus
</region>

<region>
hivel=127
key=B4
lovel=87
offset=83
sample=Trombone_staccatissimo_FF_B3_RR6.opus
</region>

<region>
hivel=127
key=B3
lovel=87
offset=344
sample=Trombone_staccatissimo_FF_B2_RR6.opus
</region>

<region>
hivel=127
key=B2
lovel=87
offset=350
sample=Trombone_staccatissimo_FF_B1_RR6.opus
</region>

<region>
hivel=127
key=A4
lovel=87
offset=212
sample=Trombone_staccatissimo_FF_A3_RR6.opus
</region>

<region>
hivel=127
key=A3
lovel=87
offset=165
sample=Trombone_staccatissimo_FF_A2_RR6.opus
</region>

<region>
hivel=127
key=A2
lovel=87
offset=857
sample=Trombone_staccatissimo_FF_A1_RR6.opus
</region>

<region>
hivel=127
key=A#4
lovel=87
offset=124
sample=Trombone_staccatissimo_FF_A#3_RR6.opus
</region>

<region>
hivel=127
key=A#3
lovel=87
offset=132
sample=Trombone_staccatissimo_FF_A#2_RR6.opus
</region>

<region>
hivel=127
key=A#2
lovel=87
offset=332
sample=Trombone_staccatissimo_FF_A#1_RR6.opus
</region>
</group>

<group>
group_label=RR7
seq_length=8
seq_position=7

<region>
hivel=42
key=G4
lovel=0
offset=210
sample=Trombone_staccatissimo_PP_G3_RR7.opus
</region>

<region>
hivel=42
key=G3
lovel=0
offset=5151
sample=Trombone_staccatissimo_PP_G2_RR7.opus
</region>

<region>
hivel=42
key=G2
lovel=0
offset=4247
sample=Trombone_staccatissimo_PP_G1_RR7.opus
</region>

<region>
hivel=42
key=G#4
lovel=0
sample=Trombone_staccatissimo_PP_G#3_RR7.opus
</region>

<region>
hivel=42
key=G#3
lovel=0
offset=485
sample=Trombone_staccatissimo_PP_G#2_RR7.opus
</region>

<region>
hivel=42
key=G#2
lovel=0
offset=3224
sample=Trombone_staccatissimo_PP_G#1_RR7.opus
</region>

<region>
hivel=42
key=F4
lovel=0
offset=318
sample=Trombone_staccatissimo_PP_F3_RR7.opus
</region>

<region>
hivel=42
key=F3
lovel=0
offset=2566
sample=Trombone_staccatissimo_PP_F2_RR7.opus
</region>

<region>
hivel=42
key=F2
lovel=0
offset=4095
sample=Trombone_staccatissimo_PP_F1_RR7.opus
</region>

<region>
hivel=42
key=F#4
lovel=0
offset=197
sample=Trombone_staccatissimo_PP_F#3_RR7.opus
</region>

<region>
hivel=42
key=F#3
lovel=0
offset=531
sample=Trombone_staccatissimo_PP_F#2_RR7.opus
</region>

<region>
hivel=42
key=F#2
lovel=0
offset=4589
sample=Trombone_staccatissimo_PP_F#1_RR7.opus
</region>

<region>
hivel=42
key=E4
lovel=0
offset=2192
sample=Trombone_staccatissimo_PP_E3_RR7.opus
</region>

<region>
hivel=42
key=E3
lovel=0
offset=5741
sample=Trombone_staccatissimo_PP_E2_RR7.opus
</region>

<region>
hikey=E2
hivel=42
lokey=C1
lovel=0
offset=3922
pitch_keycenter=E2
sample=Trombone_staccatissimo_PP_E1_RR7.opus
</region>

<region>
hivel=42
key=D4
lovel=0
offset=983
sample=Trombone_staccatissimo_PP_D3_RR7.opus
</region>

<region>
hivel=42
key=D3
lovel=0
offset=3035
sample=Trombone_staccatissimo_PP_D2_RR7.opus
</region>

<region>
hivel=42
key=D#4
lovel=0
offset=386
sample=Trombone_staccatissimo_PP_D#3_RR7.opus
</region>

<region>
hivel=42
key=D#3
lovel=0
offset=6686
sample=Trombone_staccatissimo_PP_D#2_RR7.opus
</region>

<region>
hikey=D#5
hivel=42
lokey=C5
lovel=0
offset=6
pitch_keycenter=C5
sample=Trombone_staccatissimo_PP_C4_RR7.opus
</region>

<region>
hikey=C4
hivel=42
lokey=C4
lovel=0
offset=610
sample=Trombone_staccatissimo_PP_C3_RR7.opus
</region>

<region>
hivel=42
key=C3
lovel=0
offset=3851
sample=Trombone_staccatissimo_PP_C2_RR7.opus
</region>

<region>
hivel=42
key=C#4
lovel=0
offset=382
sample=Trombone_staccatissimo_PP_C#3_RR7.opus
</region>

<region>
hivel=42
key=C#3
lovel=0
offset=3184
sample=Trombone_staccatissimo_PP_C#2_RR7.opus
</region>

<region>
hivel=42
key=B4
lovel=0
offset=223
sample=Trombone_staccatissimo_PP_B3_RR7.opus
</region>

<region>
hivel=42
key=B3
lovel=0
offset=1354
sample=Trombone_staccatissimo_PP_B2_RR7.opus
</region>

<region>
hivel=42
key=B2
lovel=0
offset=5556
sample=Trombone_staccatissimo_PP_B1_RR7.opus
</region>

<region>
hivel=42
key=A4
lovel=0
sample=Trombone_staccatissimo_PP_A3_RR7.opus
</region>

<region>
hivel=42
key=A3
lovel=0
offset=3215
sample=Trombone_staccatissimo_PP_A2_RR7.opus
</region>

<region>
hivel=42
key=A2
lovel=0
offset=3044
sample=Trombone_staccatissimo_PP_A1_RR7.opus
</region>

<region>
hivel=42
key=A#4
lovel=0
sample=Trombone_staccatissimo_PP_A#3_RR7.opus
</region>

<region>
hivel=42
key=A#3
lovel=0
offset=239
sample=Trombone_staccatissimo_PP_A#2_RR7.opus
</region>

<region>
hivel=42
key=A#2
lovel=0
offset=4672
sample=Trombone_staccatissimo_PP_A#1_RR7.opus
</region>

<region>
hivel=86
key=G4
lovel=43
sample=Trombone_staccatissimo_MF_G3_RR7.opus
</region>

<region>
hivel=86
key=G3
lovel=43
offset=499
sample=Trombone_staccatissimo_MF_G2_RR7.opus
</region>

<region>
hivel=86
key=G2
lovel=43
offset=1306
sample=Trombone_staccatissimo_MF_G1_RR7.opus
</region>

<region>
hivel=86
key=G#4
lovel=43
sample=Trombone_staccatissimo_MF_G#3_RR7.opus
</region>

<region>
hivel=86
key=G#3
lovel=43
offset=428
sample=Trombone_staccatissimo_MF_G#2_RR7.opus
</region>

<region>
hivel=86
key=G#2
lovel=43
offset=834
sample=Trombone_staccatissimo_MF_G#1_RR7.opus
</region>

<region>
hivel=86
key=F4
lovel=43
offset=617
sample=Trombone_staccatissimo_MF_F3_RR7.opus
</region>

<region>
hivel=86
key=F3
lovel=43
sample=Trombone_staccatissimo_MF_F2_RR7.opus
</region>

<region>
hivel=86
key=F2
lovel=43
offset=1614
sample=Trombone_staccatissimo_MF_F1_RR7.opus
</region>

<region>
hivel=86
key=F#4
lovel=43
offset=332
sample=Trombone_staccatissimo_MF_F#3_RR7.opus
</region>

<region>
hivel=86
key=F#3
lovel=43
offset=832
sample=Trombone_staccatissimo_MF_F#2_RR7.opus
</region>

<region>
hivel=86
key=F#2
lovel=43
offset=1022
sample=Trombone_staccatissimo_MF_F#1_RR7.opus
</region>

<region>
hivel=86
key=E4
lovel=43
offset=639
sample=Trombone_staccatissimo_MF_E3_RR7.opus
</region>

<region>
hivel=86
key=E3
lovel=43
offset=472
sample=Trombone_staccatissimo_MF_E2_RR7.opus
</region>

<region>
hikey=E2
hivel=86
lokey=C1
lovel=43
offset=1166
pitch_keycenter=E2
sample=Trombone_staccatissimo_MF_E1_RR7.opus
</region>

<region>
hivel=86
key=D4
lovel=43
offset=313
sample=Trombone_staccatissimo_MF_D3_RR7.opus
</region>

<region>
hivel=86
key=D3
lovel=43
offset=600
sample=Trombone_staccatissimo_MF_D2_RR7.opus
</region>

<region>
hivel=86
key=D#4
lovel=43
offset=409
sample=Trombone_staccatissimo_MF_D#3_RR7.opus
</region>

<region>
hivel=86
key=D#3
lovel=43
offset=469
sample=Trombone_staccatissimo_MF_D#2_RR7.opus
</region>

<region>
hikey=D#5
hivel=86
lokey=C5
lovel=43
offset=171
pitch_keycenter=C5
sample=Trombone_staccatissimo_MF_C4_RR7.opus
</region>

<region>
hikey=C4
hivel=86
lokey=C4
lovel=43
offset=424
sample=Trombone_staccatissimo_MF_C3_RR7.opus
</region>

<region>
hivel=86
key=C3
lovel=43
offset=1004
sample=Trombone_staccatissimo_MF_C2_RR7.opus
</region>

<region>
hivel=86
key=C#4
lovel=43
offset=342
sample=Trombone_staccatissimo_MF_C#3_RR7.opus
</region>

<region>
hivel=86
key=C#3
lovel=43
offset=262
sample=Trombone_staccatissimo_MF_C#2_RR7.opus
</region>

<region>
hivel=86
key=B4
lovel=43
sample=Trombone_staccatissimo_MF_B3_RR7.opus
</region>

<region>
hivel=86
key=B3
lovel=43
offset=446
sample=Trombone_staccatissimo_MF_B2_RR7.opus
</region>

<region>
hivel=86
key=B2
lovel=43
sample=Trombone_staccatissimo_MF_B1_RR7.opus
</region>

<region>
hivel=86
key=A4
lovel=43
sample=Trombone_staccatissimo_MF_A3_RR7.opus
</region>

<region>
hivel=86
key=A3
lovel=43
offset=329
sample=Trombone_staccatissimo_MF_A2_RR7.opus
</region>

<region>
hivel=86
key=A2
lovel=43
offset=1225
sample=Trombone_staccatissimo_MF_A1_RR7.opus
</region>

<region>
hivel=86
key=A#4
lovel=43
sample=Trombone_staccatissimo_MF_A#3_RR7.opus
</region>

<region>
hivel=86
key=A#3
lovel=43
offset=319
sample=Trombone_staccatissimo_MF_A#2_RR7.opus
</region>

<region>
hivel=86
key=A#2
lovel=43
offset=1062
sample=Trombone_staccatissimo_MF_A#1_RR7.opus
</region>

<region>
hivel=127
key=G4
lovel=87
offset=228
sample=Trombone_staccatissimo_FF_G3_RR7.opus
</region>

<region>
hivel=127
key=G3
lovel=87
offset=308
sample=Trombone_staccatissimo_FF_G2_RR7.opus
</region>

<region>
hivel=127
key=G2
lovel=87
offset=46
sample=Trombone_staccatissimo_FF_G1_RR7.opus
</region>

<region>
hivel=127
key=G#4
lovel=87
offset=86
sample=Trombone_staccatissimo_FF_G#3_RR7.opus
</region>

<region>
hivel=127
key=G#3
lovel=87
sample=Trombone_staccatissimo_FF_G#2_RR7.opus
</region>

<region>
hivel=127
key=G#2
lovel=87
offset=467
sample=Trombone_staccatissimo_FF_G#1_RR7.opus
</region>

<region>
hivel=127
key=F4
lovel=87
offset=313
sample=Trombone_staccatissimo_FF_F3_RR7.opus
</region>

<region>
hivel=127
key=F3
lovel=87
sample=Trombone_staccatissimo_FF_F2_RR7.opus
</region>

<region>
hivel=127
key=F2
lovel=87
sample=Trombone_staccatissimo_FF_F1_RR7.opus
</region>

<region>
hivel=127
key=F#4
lovel=87
offset=247
sample=Trombone_staccatissimo_FF_F#3_RR7.opus
</region>

<region>
hivel=127
key=F#3
lovel=87
offset=320
sample=Trombone_staccatissimo_FF_F#2_RR7.opus
</region>

<region>
hivel=127
key=F#2
lovel=87
offset=542
sample=Trombone_staccatissimo_FF_F#1_RR7.opus
</region>

<region>
hivel=127
key=E4
lovel=87
offset=254
sample=Trombone_staccatissimo_FF_E3_RR7.opus
</region>

<region>
hivel=127
key=E3
lovel=87
offset=129
sample=Trombone_staccatissimo_FF_E2_RR7.opus
</region>

<region>
hikey=E2
hivel=127
lokey=C1
lovel=87
offset=694
pitch_keycenter=E2
sample=Trombone_staccatissimo_FF_E1_RR7.opus
</region>

<region>
hivel=127
key=D4
lovel=87
offset=326
sample=Trombone_staccatissimo_FF_D3_RR7.opus
</region>

<region>
hivel=127
key=D3
lovel=87
offset=491
sample=Trombone_staccatissimo_FF_D2_RR7.opus
</region>

<region>
hivel=127
key=D#4
lovel=87
offset=282
sample=Trombone_staccatissimo_FF_D#3_RR7.opus
</region>

<region>
hivel=127
key=D#3
lovel=87
offset=109
sample=Trombone_staccatissimo_FF_D#2_RR7.opus
</region>

<region>
hikey=D#5
hivel=127
lokey=C5
lovel=87
offset=520
pitch_keycenter=C5
sample=Trombone_staccatissimo_FF_C4_RR7.opus
</region>

<region>
hikey=C4
hivel=127
lokey=C4
lovel=87
offset=405
sample=Trombone_staccatissimo_FF_C3_RR7.opus
</region>

<region>
hivel=127
key=C3
lovel=87
offset=613
sample=Trombone_staccatissimo_FF_C2_RR7.opus
</region>

<region>
hivel=127
key=C#4
lovel=87
offset=212
sample=Trombone_staccatissimo_FF_C#3_RR7.opus
</region>

<region>
hivel=127
key=C#3
lovel=87
offset=870
sample=Trombone_staccatissimo_FF_C#2_RR7.opus
</region>

<region>
hivel=127
key=B4
lovel=87
offset=146
sample=Trombone_staccatissimo_FF_B3_RR7.opus
</region>

<region>
hivel=127
key=B3
lovel=87
offset=128
sample=Trombone_staccatissimo_FF_B2_RR7.opus
</region>

<region>
hivel=127
key=B2
lovel=87
offset=365
sample=Trombone_staccatissimo_FF_B1_RR7.opus
</region>

<region>
hivel=127
key=A4
lovel=87
offset=149
sample=Trombone_staccatissimo_FF_A3_RR7.opus
</region>

<region>
hivel=127
key=A3
lovel=87
sample=Trombone_staccatissimo_FF_A2_RR7.opus
</region>

<region>
hivel=127
key=A2
lovel=87
offset=1270
sample=Trombone_staccatissimo_FF_A1_RR7.opus
</region>

<region>
hivel=127
key=A#4
lovel=87
offset=363
sample=Trombone_staccatissimo_FF_A#3_RR7.opus
</region>

<region>
hivel=127
key=A#3
lovel=87
sample=Trombone_staccatissimo_FF_A#2_RR7.opus
</region>

<region>
hivel=127
key=A#2
lovel=87
offset=785
sample=Trombone_staccatissimo_FF_A#1_RR7.opus
</region>
</group>

<group>
group_label=RR8
seq_length=8
seq_position=8

<region>
hivel=42
key=G4
lovel=0
sample=Trombone_staccatissimo_PP_G3_RR8.opus
</region>

<region>
hivel=42
key=G3
lovel=0
offset=528
sample=Trombone_staccatissimo_PP_G2_RR8.opus
</region>

<region>
hivel=42
key=G2
lovel=0
offset=6491
sample=Trombone_staccatissimo_PP_G1_RR8.opus
</region>

<region>
hivel=42
key=G#4
lovel=0
offset=262
sample=Trombone_staccatissimo_PP_G#3_RR8.opus
</region>

<region>
hivel=42
key=G#3
lovel=0
offset=5535
sample=Trombone_staccatissimo_PP_G#2_RR8.opus
</region>

<region>
hivel=42
key=G#2
lovel=0
offset=4210
sample=Trombone_staccatissimo_PP_G#1_RR8.opus
</region>

<region>
hivel=42
key=F4
lovel=0
offset=490
sample=Trombone_staccatissimo_PP_F3_RR8.opus
</region>

<region>
hivel=42
key=F3
lovel=0
offset=4864
sample=Trombone_staccatissimo_PP_F2_RR8.opus
</region>

<region>
hivel=42
key=F2
lovel=0
offset=4535
sample=Trombone_staccatissimo_PP_F1_RR8.opus
</region>

<region>
hivel=42
key=F#4
lovel=0
offset=35
sample=Trombone_staccatissimo_PP_F#3_RR8.opus
</region>

<region>
hivel=42
key=F#3
lovel=0
offset=4076
sample=Trombone_staccatissimo_PP_F#2_RR8.opus
</region>

<region>
hivel=42
key=F#2
lovel=0
offset=4238
sample=Trombone_staccatissimo_PP_F#1_RR8.opus
</region>

<region>
hivel=42
key=E4
lovel=0
offset=2690
sample=Trombone_staccatissimo_PP_E3_RR8.opus
</region>

<region>
hivel=42
key=E3
lovel=0
offset=3851
sample=Trombone_staccatissimo_PP_E2_RR8.opus
</region>

<region>
hikey=E2
hivel=42
lokey=C1
lovel=0
offset=4970
pitch_keycenter=E2
sample=Trombone_staccatissimo_PP_E1_RR8.opus
</region>

<region>
hivel=42
key=D4
lovel=0
offset=5834
sample=Trombone_staccatissimo_PP_D3_RR8.opus
</region>

<region>
hivel=42
key=D3
lovel=0
offset=2068
sample=Trombone_staccatissimo_PP_D2_RR8.opus
</region>

<region>
hivel=42
key=D#4
lovel=0
sample=Trombone_staccatissimo_PP_D#3_RR8.opus
</region>

<region>
hivel=42
key=D#3
lovel=0
offset=767
sample=Trombone_staccatissimo_PP_D#2_RR8.opus
</region>

<region>
hikey=D#5
hivel=42
lokey=C5
lovel=0
offset=319
pitch_keycenter=C5
sample=Trombone_staccatissimo_PP_C4_RR8.opus
</region>

<region>
hikey=C4
hivel=42
lokey=C4
lovel=0
offset=1232
sample=Trombone_staccatissimo_PP_C3_RR8.opus
</region>

<region>
hivel=42
key=C3
lovel=0
offset=4439
sample=Trombone_staccatissimo_PP_C2_RR8.opus
</region>

<region>
hivel=42
key=C#4
lovel=0
sample=Trombone_staccatissimo_PP_C#3_RR8.opus
</region>

<region>
hivel=42
key=C#3
lovel=0
offset=880
sample=Trombone_staccatissimo_PP_C#2_RR8.opus
</region>

<region>
hivel=42
key=B4
lovel=0
offset=282
sample=Trombone_staccatissimo_PP_B3_RR8.opus
</region>

<region>
hivel=42
key=B3
lovel=0
offset=202
sample=Trombone_staccatissimo_PP_B2_RR8.opus
</region>

<region>
hivel=42
key=B2
lovel=0
offset=6272
sample=Trombone_staccatissimo_PP_B1_RR8.opus
</region>

<region>
hivel=42
key=A4
lovel=0
sample=Trombone_staccatissimo_PP_A3_RR8.opus
</region>

<region>
hivel=42
key=A3
lovel=0
offset=404
sample=Trombone_staccatissimo_PP_A2_RR8.opus
</region>

<region>
hivel=42
key=A2
lovel=0
offset=3447
sample=Trombone_staccatissimo_PP_A1_RR8.opus
</region>

<region>
hivel=42
key=A#4
lovel=0
offset=37
sample=Trombone_staccatissimo_PP_A#3_RR8.opus
</region>

<region>
hivel=42
key=A#3
lovel=0
offset=4290
sample=Trombone_staccatissimo_PP_A#2_RR8.opus
</region>

<region>
hivel=42
key=A#2
lovel=0
offset=6099
sample=Trombone_staccatissimo_PP_A#1_RR8.opus
</region>

<region>
hivel=86
key=G4
lovel=43
sample=Trombone_staccatissimo_MF_G3_RR8.opus
</region>

<region>
hivel=86
key=G3
lovel=43
offset=202
sample=Trombone_staccatissimo_MF_G2_RR8.opus
</region>

<region>
hivel=86
key=G2
lovel=43
offset=952
sample=Trombone_staccatissimo_MF_G1_RR8.opus
</region>

<region>
hivel=86
key=G#4
lovel=43
sample=Trombone_staccatissimo_MF_G#3_RR8.opus
</region>

<region>
hivel=86
key=G#3
lovel=43
offset=421
sample=Trombone_staccatissimo_MF_G#2_RR8.opus
</region>

<region>
hivel=86
key=G#2
lovel=43
offset=839
sample=Trombone_staccatissimo_MF_G#1_RR8.opus
</region>

<region>
hivel=86
key=F4
lovel=43
offset=505
sample=Trombone_staccatissimo_MF_F3_RR8.opus
</region>

<region>
hivel=86
key=F3
lovel=43
offset=586
sample=Trombone_staccatissimo_MF_F2_RR8.opus
</region>

<region>
hivel=86
key=F2
lovel=43
offset=6346
sample=Trombone_staccatissimo_MF_F1_RR8.opus
</region>

<region>
hivel=86
key=F#4
lovel=43
offset=174
sample=Trombone_staccatissimo_MF_F#3_RR8.opus
</region>

<region>
hivel=86
key=F#3
lovel=43
offset=586
sample=Trombone_staccatissimo_MF_F#2_RR8.opus
</region>

<region>
hivel=86
key=F#2
lovel=43
offset=2032
sample=Trombone_staccatissimo_MF_F#1_RR8.opus
</region>

<region>
hivel=86
key=E4
lovel=43
offset=437
sample=Trombone_staccatissimo_MF_E3_RR8.opus
</region>

<region>
hivel=86
key=E3
lovel=43
offset=693
sample=Trombone_staccatissimo_MF_E2_RR8.opus
</region>

<region>
hikey=E2
hivel=86
lokey=C1
lovel=43
offset=1206
pitch_keycenter=E2
sample=Trombone_staccatissimo_MF_E1_RR8.opus
</region>

<region>
hivel=86
key=D4
lovel=43
offset=791
sample=Trombone_staccatissimo_MF_D3_RR8.opus
</region>

<region>
hivel=86
key=D3
lovel=43
offset=514
sample=Trombone_staccatissimo_MF_D2_RR8.opus
</region>

<region>
hivel=86
key=D#4
lovel=43
offset=428
sample=Trombone_staccatissimo_MF_D#3_RR8.opus
</region>

<region>
hivel=86
key=D#3
lovel=43
offset=722
sample=Trombone_staccatissimo_MF_D#2_RR8.opus
</region>

<region>
hikey=D#5
hivel=86
lokey=C5
lovel=43
pitch_keycenter=C5
sample=Trombone_staccatissimo_MF_C4_RR8.opus
</region>

<region>
hikey=C4
hivel=86
lokey=C4
lovel=43
offset=420
sample=Trombone_staccatissimo_MF_C3_RR8.opus
</region>

<region>
hivel=86
key=C3
lovel=43
offset=628
sample=Trombone_staccatissimo_MF_C2_RR8.opus
</region>

<region>
hivel=86
key=C#4
lovel=43
offset=173
sample=Trombone_staccatissimo_MF_C#3_RR8.opus
</region>

<region>
hivel=86
key=C#3
lovel=43
offset=568
sample=Trombone_staccatissimo_MF_C#2_RR8.opus
</region>

<region>
hivel=86
key=B4
lovel=43
sample=Trombone_staccatissimo_MF_B3_RR8.opus
</region>

<region>
hivel=86
key=B3
lovel=43
offset=442
sample=Trombone_staccatissimo_MF_B2_RR8.opus
</region>

<region>
hivel=86
key=B2
lovel=43
offset=1071
sample=Trombone_staccatissimo_MF_B1_RR8.opus
</region>

<region>
hivel=86
key=A4
lovel=43
sample=Trombone_staccatissimo_MF_A3_RR8.opus
</region>

<region>
hivel=86
key=A3
lovel=43
offset=345
sample=Trombone_staccatissimo_MF_A2_RR8.opus
</region>

<region>
hivel=86
key=A2
lovel=43
offset=2689
sample=Trombone_staccatissimo_MF_A1_RR8.opus
</region>

<region>
hivel=86
key=A#4
lovel=43
offset=68
sample=Trombone_staccatissimo_MF_A#3_RR8.opus
</region>

<region>
hivel=86
key=A#3
lovel=43
offset=292
sample=Trombone_staccatissimo_MF_A#2_RR8.opus
</region>

<region>
hivel=86
key=A#2
lovel=43
offset=672
sample=Trombone_staccatissimo_MF_A#1_RR8.opus
</region>

<region>
hivel=127
key=G4
lovel=87
offset=239
sample=Trombone_staccatissimo_FF_G3_RR8.opus
</region>

<region>
hivel=127
key=G3
lovel=87
offset=270
sample=Trombone_staccatissimo_FF_G2_RR8.opus
</region>

<region>
hivel=127
key=G2
lovel=87
offset=1014
sample=Trombone_staccatissimo_FF_G1_RR8.opus
</region>

<region>
hivel=127
key=G#4
lovel=87
offset=290
sample=Trombone_staccatissimo_FF_G#3_RR8.opus
</region>

<region>
hivel=127
key=G#3
lovel=87
sample=Trombone_staccatissimo_FF_G#2_RR8.opus
</region>

<region>
hivel=127
key=G#2
lovel=87
offset=948
sample=Trombone_staccatissimo_FF_G#1_RR8.opus
</region>

<region>
hivel=127
key=F4
lovel=87
offset=243
sample=Trombone_staccatissimo_FF_F3_RR8.opus
</region>

<region>
hivel=127
key=F3
lovel=87
offset=56
sample=Trombone_staccatissimo_FF_F2_RR8.opus
</region>

<region>
hivel=127
key=F2
lovel=87
offset=102
sample=Trombone_staccatissimo_FF_F1_RR8.opus
</region>

<region>
hivel=127
key=F#4
lovel=87
offset=292
sample=Trombone_staccatissimo_FF_F#3_RR8.opus
</region>

<region>
hivel=127
key=F#3
lovel=87
offset=333
sample=Trombone_staccatissimo_FF_F#2_RR8.opus
</region>

<region>
hivel=127
key=F#2
lovel=87
offset=84
sample=Trombone_staccatissimo_FF_F#1_RR8.opus
</region>

<region>
hivel=127
key=E4
lovel=87
offset=235
sample=Trombone_staccatissimo_FF_E3_RR8.opus
</region>

<region>
hivel=127
key=E3
lovel=87
offset=125
sample=Trombone_staccatissimo_FF_E2_RR8.opus
</region>

<region>
hikey=E2
hivel=127
lokey=C1
lovel=87
offset=1163
pitch_keycenter=E2
sample=Trombone_staccatissimo_FF_E1_RR8.opus
</region>

<region>
hivel=127
key=D4
lovel=87
sample=Trombone_staccatissimo_FF_D3_RR8.opus
</region>

<region>
hivel=127
key=D3
lovel=87
offset=531
sample=Trombone_staccatissimo_FF_D2_RR8.opus
</region>

<region>
hivel=127
key=D#4
lovel=87
offset=164
sample=Trombone_staccatissimo_FF_D#3_RR8.opus
</region>

<region>
hivel=127
key=D#3
lovel=87
offset=1019
sample=Trombone_staccatissimo_FF_D#2_RR8.opus
</region>

<region>
hikey=D#5
hivel=127
lokey=C5
lovel=87
offset=64
pitch_keycenter=C5
sample=Trombone_staccatissimo_FF_C4_RR8.opus
</region>

<region>
hikey=C4
hivel=127
lokey=C4
lovel=87
offset=732
sample=Trombone_staccatissimo_FF_C3_RR8.opus
</region>

<region>
hivel=127
key=C3
lovel=87
offset=1401
sample=Trombone_staccatissimo_FF_C2_RR8.opus
</region>

<region>
hivel=127
key=C#4
lovel=87
offset=35
sample=Trombone_staccatissimo_FF_C#3_RR8.opus
</region>

<region>
hivel=127
key=C#3
lovel=87
offset=586
sample=Trombone_staccatissimo_FF_C#2_RR8.opus
</region>

<region>
hivel=127
key=B4
lovel=87
offset=134
sample=Trombone_staccatissimo_FF_B3_RR8.opus
</region>

<region>
hivel=127
key=B3
lovel=87
offset=109
sample=Trombone_staccatissimo_FF_B2_RR8.opus
</region>

<region>
hivel=127
key=B2
lovel=87
offset=836
sample=Trombone_staccatissimo_FF_B1_RR8.opus
</region>

<region>
hivel=127
key=A4
lovel=87
offset=235
sample=Trombone_staccatissimo_FF_A3_RR8.opus
</region>

<region>
hivel=127
key=A3
lovel=87
sample=Trombone_staccatissimo_FF_A2_RR8.opus
</region>

<region>
hivel=127
key=A2
lovel=87
offset=836
sample=Trombone_staccatissimo_FF_A1_RR8.opus
</region>

<region>
hivel=127
key=A#4
lovel=87
offset=54
sample=Trombone_staccatissimo_FF_A#3_RR8.opus
</region>

<region>
hivel=127
key=A#3
lovel=87
sample=Trombone_staccatissimo_FF_A#2_RR8.opus
</region>

<region>
hivel=127
key=A#2
lovel=87
sample=Trombone_staccatissimo_FF_A#1_RR8.opus
</region>
</group>